<svg id="svg" version="1.1" xmlns="http://www.w3.org/2000/svg" xmlns:xlink="http://www.w3.org/1999/xlink" width="400" height="400" viewBox="0, 0, 400,400"><g id="svgg"><path id="path0" d="M183.600 3.200 C 183.600 3.438,182.075 3.600,179.824 3.600 C 177.737 3.600,175.937 3.779,175.800 4.000 C 175.664 4.220,174.213 4.400,172.576 4.400 C 170.939 4.400,169.600 4.558,169.600 4.752 C 169.600 4.946,167.710 5.233,165.400 5.391 C 163.090 5.548,161.200 5.840,161.200 6.038 C 161.200 6.237,160.300 6.400,159.200 6.400 C 158.100 6.400,157.200 6.580,157.200 6.800 C 157.200 7.020,156.570 7.200,155.800 7.200 C 155.030 7.200,154.400 7.380,154.400 7.600 C 154.400 7.820,153.680 8.000,152.800 8.000 C 151.920 8.000,151.200 8.180,151.200 8.400 C 151.200 8.620,150.480 8.800,149.600 8.800 C 148.720 8.800,148.000 8.980,148.000 9.200 C 148.000 9.420,147.370 9.600,146.600 9.600 C 145.830 9.600,145.200 9.780,145.200 10.000 C 145.200 10.220,144.660 10.400,144.000 10.400 C 143.340 10.400,142.800 10.580,142.800 10.800 C 142.800 11.020,142.260 11.200,141.600 11.200 C 140.940 11.200,140.400 11.380,140.400 11.600 C 140.400 11.820,139.680 12.000,138.800 12.000 C 137.920 12.000,137.199 12.135,137.197 12.300 C 137.193 12.706,135.214 13.600,134.320 13.600 C 133.924 13.600,133.600 13.780,133.600 14.000 C 133.600 14.220,133.060 14.400,132.400 14.400 C 131.740 14.400,131.200 14.560,131.200 14.756 C 131.200 15.058,130.102 15.343,127.700 15.666 C 127.425 15.703,127.200 15.883,127.200 16.067 C 127.200 16.250,126.750 16.400,126.200 16.400 C 125.650 16.400,125.200 16.580,125.200 16.800 C 125.200 17.020,124.840 17.200,124.400 17.200 C 123.960 17.200,123.600 17.380,123.600 17.600 C 123.600 17.820,123.060 18.000,122.400 18.000 C 121.740 18.000,121.200 18.180,121.200 18.400 C 121.200 18.620,120.840 18.800,120.400 18.800 C 119.960 18.800,119.600 18.980,119.600 19.200 C 119.600 19.420,119.240 19.600,118.800 19.600 C 118.360 19.600,118.000 19.780,118.000 20.000 C 118.000 20.220,117.640 20.400,117.200 20.400 C 116.760 20.400,116.400 20.580,116.400 20.800 C 116.400 21.020,116.130 21.200,115.800 21.200 C 115.470 21.200,115.200 21.380,115.200 21.600 C 115.200 21.820,114.840 22.000,114.400 22.000 C 113.960 22.000,113.600 22.180,113.600 22.400 C 113.600 22.620,113.240 22.800,112.800 22.800 C 112.360 22.800,112.000 22.980,112.000 23.200 C 112.000 23.420,111.640 23.600,111.200 23.600 C 110.760 23.600,110.400 23.780,110.400 24.000 C 110.400 24.220,110.040 24.400,109.600 24.400 C 109.160 24.400,108.800 24.580,108.800 24.800 C 108.800 25.020,108.474 25.200,108.076 25.200 C 107.679 25.200,107.004 25.464,106.576 25.787 C 106.149 26.110,105.485 26.380,105.100 26.387 C 104.715 26.394,104.400 26.580,104.400 26.800 C 104.400 27.020,104.040 27.200,103.600 27.200 C 103.160 27.200,102.800 27.380,102.800 27.600 C 102.800 27.820,102.480 28.000,102.088 28.000 C 101.697 28.000,101.117 28.360,100.800 28.800 C 100.483 29.240,99.903 29.600,99.512 29.600 C 99.120 29.600,98.800 29.780,98.800 30.000 C 98.800 30.220,98.480 30.400,98.088 30.400 C 97.697 30.400,97.117 30.760,96.800 31.200 C 96.483 31.640,96.033 32.000,95.800 32.000 C 95.567 32.000,95.117 32.360,94.800 32.800 C 94.483 33.240,93.903 33.600,93.512 33.600 C 93.120 33.600,92.800 33.780,92.800 34.000 C 92.800 34.220,92.440 34.400,92.000 34.400 C 91.560 34.400,91.200 34.577,91.200 34.792 C 91.200 35.008,90.705 35.306,90.100 35.453 C 89.495 35.601,88.569 36.234,88.042 36.861 C 87.515 37.487,86.762 38.000,86.369 38.000 C 85.976 38.000,85.540 38.360,85.400 38.800 C 85.260 39.240,84.870 39.600,84.534 39.600 C 84.197 39.600,83.417 40.140,82.800 40.800 C 82.183 41.460,81.463 42.000,81.200 42.000 C 80.937 42.000,80.217 42.540,79.600 43.200 C 78.983 43.860,78.269 44.400,78.013 44.400 C 77.756 44.400,76.952 45.030,76.226 45.800 C 75.500 46.570,74.692 47.200,74.431 47.200 C 74.169 47.200,72.896 48.280,71.600 49.600 C 70.304 50.920,69.064 52.000,68.844 52.000 C 68.321 52.000,52.000 68.321,52.000 68.844 C 52.000 69.064,50.920 70.304,49.600 71.600 C 48.280 72.896,47.200 74.169,47.200 74.431 C 47.200 74.692,46.570 75.500,45.800 76.226 C 45.030 76.952,44.400 77.756,44.400 78.013 C 44.400 78.269,43.860 78.983,43.200 79.600 C 42.540 80.217,42.000 80.937,42.000 81.200 C 42.000 81.463,41.460 82.183,40.800 82.800 C 40.140 83.417,39.600 84.209,39.600 84.560 C 39.600 84.912,39.448 85.200,39.261 85.200 C 38.701 85.200,37.200 86.657,37.200 87.200 C 37.200 87.478,36.869 87.997,36.464 88.353 C 36.059 88.709,35.606 89.495,35.456 90.100 C 35.307 90.705,35.008 91.200,34.792 91.200 C 34.577 91.200,34.400 91.520,34.400 91.912 C 34.400 92.303,34.040 92.883,33.600 93.200 C 33.160 93.517,32.800 94.097,32.800 94.488 C 32.800 94.880,32.620 95.200,32.400 95.200 C 32.180 95.200,32.000 95.430,32.000 95.712 C 32.000 95.993,31.640 96.483,31.200 96.800 C 30.760 97.117,30.400 97.697,30.400 98.088 C 30.400 98.480,30.220 98.800,30.000 98.800 C 29.780 98.800,29.600 99.120,29.600 99.512 C 29.600 99.903,29.240 100.483,28.800 100.800 C 28.360 101.117,28.000 101.697,28.000 102.088 C 28.000 102.480,27.820 102.800,27.600 102.800 C 27.380 102.800,27.200 103.160,27.200 103.600 C 27.200 104.040,27.020 104.400,26.800 104.400 C 26.580 104.400,26.400 104.655,26.400 104.968 C 26.400 105.681,25.102 107.994,24.700 107.997 C 24.535 107.999,24.400 108.360,24.400 108.800 C 24.400 109.240,24.220 109.600,24.000 109.600 C 23.780 109.600,23.600 109.960,23.600 110.400 C 23.600 110.840,23.420 111.200,23.200 111.200 C 22.980 111.200,22.800 111.560,22.800 112.000 C 22.800 112.440,22.620 112.800,22.400 112.800 C 22.180 112.800,22.000 113.160,22.000 113.600 C 22.000 114.040,21.820 114.400,21.600 114.400 C 21.380 114.400,21.200 114.850,21.200 115.400 C 21.200 115.950,21.020 116.400,20.800 116.400 C 20.580 116.400,20.400 116.760,20.400 117.200 C 20.400 117.640,20.220 118.000,20.000 118.000 C 19.780 118.000,19.600 118.360,19.600 118.800 C 19.600 119.240,19.420 119.600,19.200 119.600 C 18.980 119.600,18.800 119.960,18.800 120.400 C 18.800 120.840,18.620 121.200,18.400 121.200 C 18.180 121.200,18.000 121.740,18.000 122.400 C 18.000 123.060,17.820 123.600,17.600 123.600 C 17.380 123.600,17.200 123.960,17.200 124.400 C 17.200 124.840,17.020 125.200,16.800 125.200 C 16.580 125.200,16.400 125.650,16.400 126.200 C 16.400 126.750,16.250 127.200,16.067 127.200 C 15.883 127.200,15.703 127.425,15.666 127.700 C 15.343 130.102,15.058 131.200,14.756 131.200 C 14.560 131.200,14.400 131.560,14.400 132.000 C 14.400 132.440,14.220 132.800,14.000 132.800 C 13.780 132.800,13.600 133.340,13.600 134.000 C 13.600 134.660,13.420 135.200,13.200 135.200 C 12.980 135.200,12.800 135.650,12.800 136.200 C 12.800 136.750,12.620 137.200,12.400 137.200 C 12.180 137.200,12.000 137.740,12.000 138.400 C 12.000 139.060,11.820 139.600,11.600 139.600 C 11.380 139.600,11.200 140.320,11.200 141.200 C 11.200 142.080,11.020 142.800,10.800 142.800 C 10.580 142.800,10.400 143.340,10.400 144.000 C 10.400 144.660,10.220 145.200,10.000 145.200 C 9.780 145.200,9.600 145.830,9.600 146.600 C 9.600 147.370,9.420 148.000,9.200 148.000 C 8.980 148.000,8.800 148.540,8.800 149.200 C 8.800 149.860,8.620 150.400,8.400 150.400 C 8.180 150.400,8.000 151.300,8.000 152.400 C 8.000 153.500,7.820 154.400,7.600 154.400 C 7.380 154.400,7.200 155.030,7.200 155.800 C 7.200 156.570,7.020 157.200,6.800 157.200 C 6.580 157.200,6.400 158.100,6.400 159.200 C 6.400 160.300,6.237 161.200,6.038 161.200 C 5.840 161.200,5.548 163.090,5.391 165.400 C 5.233 167.710,4.946 169.600,4.752 169.600 C 4.558 169.600,4.400 170.939,4.400 172.576 C 4.400 174.213,4.220 175.664,4.000 175.800 C 3.779 175.937,3.600 177.737,3.600 179.824 C 3.600 182.075,3.438 183.600,3.200 183.600 C 2.940 183.600,2.800 189.333,2.800 200.000 C 2.800 210.667,2.940 216.400,3.200 216.400 C 3.440 216.400,3.600 218.000,3.600 220.400 C 3.600 222.800,3.760 224.400,4.000 224.400 C 4.231 224.400,4.400 225.667,4.400 227.400 C 4.400 229.050,4.558 230.400,4.752 230.400 C 4.946 230.400,5.233 232.290,5.391 234.600 C 5.548 236.910,5.840 238.800,6.038 238.800 C 6.237 238.800,6.400 239.700,6.400 240.800 C 6.400 241.900,6.580 242.800,6.800 242.800 C 7.020 242.800,7.200 243.610,7.200 244.600 C 7.200 245.590,7.380 246.400,7.600 246.400 C 7.820 246.400,8.000 247.120,8.000 248.000 C 8.000 248.880,8.180 249.600,8.400 249.600 C 8.620 249.600,8.800 250.140,8.800 250.800 C 8.800 251.460,8.980 252.000,9.200 252.000 C 9.420 252.000,9.600 252.630,9.600 253.400 C 9.600 254.170,9.780 254.800,10.000 254.800 C 10.220 254.800,10.400 255.340,10.400 256.000 C 10.400 256.660,10.580 257.200,10.800 257.200 C 11.020 257.200,11.200 257.920,11.200 258.800 C 11.200 259.680,11.380 260.400,11.600 260.400 C 11.820 260.400,12.000 260.940,12.000 261.600 C 12.000 262.260,12.180 262.800,12.400 262.800 C 12.620 262.800,12.800 263.250,12.800 263.800 C 12.800 264.350,12.980 264.800,13.200 264.800 C 13.420 264.800,13.600 265.340,13.600 266.000 C 13.600 266.660,13.780 267.200,14.000 267.200 C 14.220 267.200,14.400 267.560,14.400 268.000 C 14.400 268.440,14.557 268.800,14.748 268.800 C 15.059 268.800,15.818 272.542,15.662 273.300 C 15.628 273.465,15.780 273.600,16.000 273.600 C 16.220 273.600,16.400 273.870,16.400 274.200 C 16.400 274.530,16.580 274.800,16.800 274.800 C 17.020 274.800,17.200 275.340,17.200 276.000 C 17.200 276.660,17.380 277.200,17.600 277.200 C 17.820 277.200,18.000 277.560,18.000 278.000 C 18.000 278.440,18.180 278.800,18.400 278.800 C 18.620 278.800,18.800 279.160,18.800 279.600 C 18.800 280.040,18.980 280.400,19.200 280.400 C 19.420 280.400,19.600 280.760,19.600 281.200 C 19.600 281.640,19.780 282.000,20.000 282.000 C 20.220 282.000,20.400 282.540,20.400 283.200 C 20.400 283.860,20.580 284.400,20.800 284.400 C 21.020 284.400,21.200 284.670,21.200 285.000 C 21.200 285.330,21.380 285.600,21.600 285.600 C 21.820 285.600,22.000 285.960,22.000 286.400 C 22.000 286.840,22.180 287.200,22.400 287.200 C 22.620 287.200,22.800 287.560,22.800 288.000 C 22.800 288.440,22.980 288.800,23.200 288.800 C 23.420 288.800,23.600 289.160,23.600 289.600 C 23.600 290.040,23.780 290.400,24.000 290.400 C 24.220 290.400,24.400 290.760,24.400 291.200 C 24.400 291.640,24.580 292.000,24.800 292.000 C 25.020 292.000,25.200 292.360,25.200 292.800 C 25.200 293.240,25.377 293.600,25.592 293.600 C 25.808 293.600,26.098 294.050,26.236 294.600 C 26.374 295.150,26.647 295.600,26.843 295.600 C 27.040 295.600,27.200 295.960,27.200 296.400 C 27.200 296.840,27.380 297.200,27.600 297.200 C 27.820 297.200,28.000 297.560,28.000 298.000 C 28.000 298.440,28.180 298.800,28.400 298.800 C 28.620 298.800,28.800 299.160,28.800 299.600 C 28.800 300.058,29.067 300.400,29.424 300.400 C 29.767 300.400,29.936 300.580,29.800 300.800 C 29.664 301.020,29.743 301.200,29.976 301.200 C 30.209 301.200,30.400 301.560,30.400 302.000 C 30.400 302.440,30.580 302.800,30.800 302.800 C 31.020 302.800,31.200 303.148,31.200 303.573 C 31.200 303.998,31.560 304.460,32.000 304.600 C 32.440 304.740,32.800 305.162,32.800 305.539 C 32.800 305.915,33.160 306.483,33.600 306.800 C 34.040 307.117,34.400 307.697,34.400 308.088 C 34.400 308.480,34.577 308.800,34.792 308.800 C 35.008 308.800,35.307 309.295,35.456 309.900 C 35.606 310.505,36.059 311.291,36.464 311.647 C 36.869 312.003,37.200 312.548,37.200 312.859 C 37.200 313.169,37.560 313.683,38.000 314.000 C 38.440 314.317,38.800 314.735,38.800 314.928 C 38.800 315.121,39.340 315.783,40.000 316.400 C 40.660 317.017,41.200 317.737,41.200 318.000 C 41.200 318.263,41.740 318.983,42.400 319.600 C 43.060 320.217,43.600 320.925,43.600 321.174 C 43.600 321.423,44.230 322.257,45.000 323.027 C 45.770 323.797,46.400 324.611,46.400 324.835 C 46.400 325.060,47.480 326.304,48.800 327.600 C 50.120 328.896,51.200 330.142,51.200 330.370 C 51.200 330.909,68.302 348.000,68.841 348.000 C 69.067 348.000,70.120 348.891,71.180 349.979 C 72.240 351.068,73.219 351.848,73.354 351.713 C 73.489 351.577,73.600 351.767,73.600 352.133 C 73.600 352.500,73.882 352.800,74.227 352.800 C 74.572 352.800,75.448 353.430,76.174 354.200 C 76.900 354.970,77.716 355.600,77.987 355.600 C 78.258 355.600,78.983 356.140,79.600 356.800 C 80.217 357.460,80.937 358.000,81.200 358.000 C 81.463 358.000,82.183 358.540,82.800 359.200 C 83.417 359.860,84.197 360.400,84.534 360.400 C 84.870 360.400,85.260 360.760,85.400 361.200 C 85.540 361.640,85.930 362.000,86.266 362.000 C 86.603 362.000,87.383 362.540,88.000 363.200 C 88.617 363.860,89.504 364.400,89.973 364.400 C 90.442 364.400,90.929 364.670,91.055 365.000 C 91.182 365.330,91.626 365.600,92.043 365.600 C 92.459 365.600,92.800 365.780,92.800 366.000 C 92.800 366.220,93.120 366.400,93.512 366.400 C 93.903 366.400,94.483 366.760,94.800 367.200 C 95.117 367.640,95.567 368.000,95.800 368.000 C 96.033 368.000,96.483 368.360,96.800 368.800 C 97.117 369.240,97.697 369.600,98.088 369.600 C 98.480 369.600,98.800 369.780,98.800 370.000 C 98.800 370.220,99.120 370.400,99.512 370.400 C 99.903 370.400,100.483 370.760,100.800 371.200 C 101.117 371.640,101.697 372.000,102.088 372.000 C 102.480 372.000,102.800 372.180,102.800 372.400 C 102.800 372.620,103.160 372.800,103.600 372.800 C 104.040 372.800,104.400 372.980,104.400 373.200 C 104.400 373.420,104.760 373.600,105.200 373.600 C 105.640 373.600,106.000 373.772,106.000 373.982 C 106.000 374.192,106.630 374.482,107.400 374.626 C 108.170 374.771,108.800 375.049,108.800 375.245 C 108.800 375.440,109.160 375.600,109.600 375.600 C 110.040 375.600,110.400 375.780,110.400 376.000 C 110.400 376.220,110.760 376.400,111.200 376.400 C 111.640 376.400,112.000 376.580,112.000 376.800 C 112.000 377.020,112.360 377.200,112.800 377.200 C 113.240 377.200,113.600 377.380,113.600 377.600 C 113.600 377.820,113.960 378.000,114.400 378.000 C 114.840 378.000,115.200 378.180,115.200 378.400 C 115.200 378.620,115.470 378.800,115.800 378.800 C 116.130 378.800,116.400 378.980,116.400 379.200 C 116.400 379.420,116.760 379.600,117.200 379.600 C 117.640 379.600,118.000 379.780,118.000 380.000 C 118.000 380.220,118.461 380.400,119.024 380.400 C 119.604 380.400,119.940 380.573,119.800 380.800 C 119.664 381.020,119.923 381.200,120.376 381.200 C 120.829 381.200,121.200 381.380,121.200 381.600 C 121.200 381.820,121.740 382.000,122.400 382.000 C 123.060 382.000,123.600 382.180,123.600 382.400 C 123.600 382.620,123.960 382.800,124.400 382.800 C 124.840 382.800,125.200 382.980,125.200 383.200 C 125.200 383.420,125.650 383.600,126.200 383.600 C 126.750 383.600,127.200 383.774,127.200 383.986 C 127.200 384.199,128.100 384.492,129.200 384.638 C 130.300 384.784,131.200 385.060,131.200 385.252 C 131.200 385.443,131.740 385.600,132.400 385.600 C 133.060 385.600,133.600 385.780,133.600 386.000 C 133.600 386.220,133.924 386.400,134.320 386.400 C 135.214 386.400,137.193 387.294,137.197 387.700 C 137.199 387.865,137.920 388.000,138.800 388.000 C 139.680 388.000,140.400 388.180,140.400 388.400 C 140.400 388.620,140.940 388.800,141.600 388.800 C 142.260 388.800,142.800 388.980,142.800 389.200 C 142.800 389.420,143.340 389.600,144.000 389.600 C 144.660 389.600,145.200 389.780,145.200 390.000 C 145.200 390.220,145.830 390.400,146.600 390.400 C 147.370 390.400,148.000 390.580,148.000 390.800 C 148.000 391.020,148.720 391.200,149.600 391.200 C 150.480 391.200,151.200 391.380,151.200 391.600 C 151.200 391.820,151.920 392.000,152.800 392.000 C 153.680 392.000,154.400 392.180,154.400 392.400 C 154.400 392.620,155.030 392.800,155.800 392.800 C 156.570 392.800,157.200 392.980,157.200 393.200 C 157.200 393.420,158.100 393.600,159.200 393.600 C 160.300 393.600,161.200 393.763,161.200 393.962 C 161.200 394.160,163.090 394.452,165.400 394.609 C 167.710 394.767,169.600 395.054,169.600 395.248 C 169.600 395.442,170.939 395.600,172.576 395.600 C 174.213 395.600,175.664 395.780,175.800 396.000 C 175.937 396.221,177.737 396.400,179.824 396.400 C 182.075 396.400,183.600 396.562,183.600 396.800 C 183.600 397.060,189.333 397.200,200.000 397.200 C 210.667 397.200,216.400 397.060,216.400 396.800 C 216.400 396.560,218.000 396.400,220.400 396.400 C 222.800 396.400,224.400 396.240,224.400 396.000 C 224.400 395.769,225.667 395.600,227.400 395.600 C 229.050 395.600,230.400 395.442,230.400 395.248 C 230.400 395.054,232.290 394.767,234.600 394.609 C 236.910 394.452,238.800 394.160,238.800 393.962 C 238.800 393.763,239.700 393.600,240.800 393.600 C 241.900 393.600,242.800 393.420,242.800 393.200 C 242.800 392.980,243.430 392.800,244.200 392.800 C 244.970 392.800,245.600 392.620,245.600 392.400 C 245.600 392.180,246.320 392.000,247.200 392.000 C 248.080 392.000,248.800 391.820,248.800 391.600 C 248.800 391.380,249.520 391.200,250.400 391.200 C 251.280 391.200,252.000 391.020,252.000 390.800 C 252.000 390.580,252.630 390.400,253.400 390.400 C 254.170 390.400,254.800 390.220,254.800 390.000 C 254.800 389.780,255.340 389.600,256.000 389.600 C 256.660 389.600,257.200 389.420,257.200 389.200 C 257.200 388.980,257.740 388.800,258.400 388.800 C 259.060 388.800,259.600 388.620,259.600 388.400 C 259.600 388.180,260.320 388.000,261.200 388.000 C 262.080 388.000,262.800 387.820,262.800 387.600 C 262.800 387.380,263.160 387.200,263.600 387.200 C 264.040 387.200,264.400 387.020,264.400 386.800 C 264.400 386.580,264.850 386.400,265.400 386.400 C 265.950 386.400,266.400 386.220,266.400 386.000 C 266.400 385.780,266.940 385.600,267.600 385.600 C 268.260 385.600,268.800 385.443,268.800 385.252 C 268.800 385.060,269.700 384.784,270.800 384.638 C 271.900 384.492,272.800 384.199,272.800 383.986 C 272.800 383.774,273.250 383.600,273.800 383.600 C 274.350 383.600,274.800 383.420,274.800 383.200 C 274.800 382.980,275.160 382.800,275.600 382.800 C 276.040 382.800,276.400 382.620,276.400 382.400 C 276.400 382.180,276.940 382.000,277.600 382.000 C 278.260 382.000,278.800 381.820,278.800 381.600 C 278.800 381.380,279.160 381.200,279.600 381.200 C 280.040 381.200,280.400 381.020,280.400 380.800 C 280.400 380.580,280.760 380.400,281.200 380.400 C 281.640 380.400,282.000 380.220,282.000 380.000 C 282.000 379.780,282.360 379.600,282.800 379.600 C 283.240 379.600,283.600 379.420,283.600 379.200 C 283.600 378.980,283.870 378.800,284.200 378.800 C 284.530 378.800,284.800 378.620,284.800 378.400 C 284.800 378.180,285.160 378.000,285.600 378.000 C 286.040 378.000,286.400 377.820,286.400 377.600 C 286.400 377.380,286.760 377.200,287.200 377.200 C 287.640 377.200,288.000 377.020,288.000 376.800 C 288.000 376.580,288.360 376.400,288.800 376.400 C 289.240 376.400,289.600 376.220,289.600 376.000 C 289.600 375.780,289.960 375.600,290.400 375.600 C 290.840 375.600,291.200 375.420,291.200 375.200 C 291.200 374.980,291.469 374.800,291.797 374.800 C 292.631 374.800,295.600 373.477,295.600 373.106 C 295.600 372.938,295.960 372.800,296.400 372.800 C 296.840 372.800,297.200 372.620,297.200 372.400 C 297.200 372.180,297.520 372.000,297.912 372.000 C 298.303 372.000,298.883 371.640,299.200 371.200 C 299.517 370.760,300.097 370.400,300.488 370.400 C 300.880 370.400,301.200 370.220,301.200 370.000 C 301.200 369.780,301.520 369.600,301.912 369.600 C 302.303 369.600,302.883 369.240,303.200 368.800 C 303.517 368.360,303.967 368.000,304.200 368.000 C 304.433 368.000,304.883 367.640,305.200 367.200 C 305.517 366.760,306.097 366.400,306.488 366.400 C 306.880 366.400,307.200 366.220,307.200 366.000 C 307.200 365.780,307.560 365.600,308.000 365.600 C 308.440 365.600,308.800 365.423,308.800 365.208 C 308.800 364.992,309.295 364.692,309.900 364.540 C 310.505 364.389,311.477 363.756,312.060 363.133 C 312.644 362.510,313.397 362.000,313.734 362.000 C 314.070 362.000,314.460 361.640,314.600 361.200 C 314.740 360.760,315.130 360.400,315.466 360.400 C 315.803 360.400,316.583 359.860,317.200 359.200 C 317.817 358.540,318.537 358.000,318.800 358.000 C 319.063 358.000,319.783 357.460,320.400 356.800 C 321.017 356.140,321.746 355.600,322.020 355.600 C 322.295 355.600,323.131 354.970,323.879 354.200 C 324.627 353.430,325.420 352.800,325.641 352.800 C 325.863 352.800,327.104 351.720,328.400 350.400 C 329.696 349.080,330.945 348.000,331.175 348.000 C 331.724 348.000,348.000 331.724,348.000 331.175 C 348.000 330.945,349.080 329.696,350.400 328.400 C 351.720 327.104,352.800 325.863,352.800 325.641 C 352.800 325.420,353.430 324.627,354.200 323.879 C 354.970 323.131,355.600 322.295,355.600 322.020 C 355.600 321.746,356.140 321.017,356.800 320.400 C 357.460 319.783,358.000 319.063,358.000 318.800 C 358.000 318.537,358.540 317.817,359.200 317.200 C 359.860 316.583,360.400 315.791,360.400 315.440 C 360.400 315.088,360.552 314.800,360.739 314.800 C 361.299 314.800,362.800 313.343,362.800 312.800 C 362.800 312.522,363.131 312.003,363.536 311.647 C 363.941 311.291,364.394 310.505,364.544 309.900 C 364.693 309.295,364.992 308.800,365.208 308.800 C 365.423 308.800,365.600 308.480,365.600 308.088 C 365.600 307.697,365.960 307.117,366.400 306.800 C 366.840 306.483,367.200 305.903,367.200 305.512 C 367.200 305.120,367.380 304.800,367.600 304.800 C 367.820 304.800,368.000 304.570,368.000 304.288 C 368.000 304.007,368.360 303.517,368.800 303.200 C 369.240 302.883,369.600 302.303,369.600 301.912 C 369.600 301.520,369.780 301.200,370.000 301.200 C 370.220 301.200,370.400 300.880,370.400 300.488 C 370.400 300.097,370.760 299.517,371.200 299.200 C 371.640 298.883,372.000 298.303,372.000 297.912 C 372.000 297.520,372.180 297.200,372.400 297.200 C 372.620 297.200,372.800 296.840,372.800 296.400 C 372.800 295.960,372.943 295.600,373.118 295.600 C 373.293 295.600,373.770 294.790,374.178 293.800 C 374.587 292.810,375.073 292.000,375.260 292.000 C 375.447 292.000,375.600 291.640,375.600 291.200 C 375.600 290.760,375.780 290.400,376.000 290.400 C 376.220 290.400,376.400 290.040,376.400 289.600 C 376.400 289.160,376.580 288.800,376.800 288.800 C 377.020 288.800,377.200 288.440,377.200 288.000 C 377.200 287.560,377.380 287.200,377.600 287.200 C 377.820 287.200,378.000 286.840,378.000 286.400 C 378.000 285.960,378.180 285.600,378.400 285.600 C 378.620 285.600,378.800 285.150,378.800 284.600 C 378.800 284.050,378.980 283.600,379.200 283.600 C 379.420 283.600,379.600 283.240,379.600 282.800 C 379.600 282.360,379.780 282.000,380.000 282.000 C 380.220 282.000,380.400 281.640,380.400 281.200 C 380.400 280.760,380.580 280.400,380.800 280.400 C 381.020 280.400,381.200 280.040,381.200 279.600 C 381.200 279.160,381.380 278.800,381.600 278.800 C 381.820 278.800,382.000 278.260,382.000 277.600 C 382.000 276.940,382.180 276.400,382.400 276.400 C 382.620 276.400,382.800 276.040,382.800 275.600 C 382.800 275.160,382.980 274.800,383.200 274.800 C 383.420 274.800,383.600 274.350,383.600 273.800 C 383.600 273.250,383.774 272.800,383.986 272.800 C 384.199 272.800,384.492 271.900,384.638 270.800 C 384.784 269.700,385.060 268.800,385.252 268.800 C 385.443 268.800,385.600 268.440,385.600 268.000 C 385.600 267.560,385.780 267.200,386.000 267.200 C 386.220 267.200,386.400 266.660,386.400 266.000 C 386.400 265.340,386.580 264.800,386.800 264.800 C 387.020 264.800,387.200 264.350,387.200 263.800 C 387.200 263.250,387.380 262.800,387.600 262.800 C 387.820 262.800,388.000 262.260,388.000 261.600 C 388.000 260.940,388.180 260.400,388.400 260.400 C 388.620 260.400,388.800 259.680,388.800 258.800 C 388.800 257.920,388.980 257.200,389.200 257.200 C 389.420 257.200,389.600 256.660,389.600 256.000 C 389.600 255.340,389.780 254.800,390.000 254.800 C 390.220 254.800,390.400 254.170,390.400 253.400 C 390.400 252.630,390.580 252.000,390.800 252.000 C 391.020 252.000,391.200 251.460,391.200 250.800 C 391.200 250.140,391.380 249.600,391.600 249.600 C 391.820 249.600,392.000 248.700,392.000 247.600 C 392.000 246.500,392.180 245.600,392.400 245.600 C 392.620 245.600,392.800 244.970,392.800 244.200 C 392.800 243.430,392.980 242.800,393.200 242.800 C 393.420 242.800,393.600 241.900,393.600 240.800 C 393.600 239.700,393.763 238.800,393.962 238.800 C 394.160 238.800,394.452 236.910,394.609 234.600 C 394.767 232.290,395.054 230.400,395.248 230.400 C 395.442 230.400,395.600 229.050,395.600 227.400 C 395.600 225.667,395.769 224.400,396.000 224.400 C 396.240 224.400,396.400 222.800,396.400 220.400 C 396.400 218.000,396.560 216.400,396.800 216.400 C 397.060 216.400,397.200 210.667,397.200 200.000 C 397.200 189.333,397.060 183.600,396.800 183.600 C 396.562 183.600,396.400 182.075,396.400 179.824 C 396.400 177.737,396.221 175.937,396.000 175.800 C 395.780 175.664,395.600 174.213,395.600 172.576 C 395.600 170.939,395.442 169.600,395.248 169.600 C 395.054 169.600,394.767 167.710,394.609 165.400 C 394.452 163.090,394.160 161.200,393.962 161.200 C 393.763 161.200,393.600 160.300,393.600 159.200 C 393.600 158.100,393.420 157.200,393.200 157.200 C 392.980 157.200,392.800 156.570,392.800 155.800 C 392.800 155.030,392.620 154.400,392.400 154.400 C 392.180 154.400,392.000 153.680,392.000 152.800 C 392.000 151.920,391.820 151.200,391.600 151.200 C 391.380 151.200,391.200 150.480,391.200 149.600 C 391.200 148.720,391.020 148.000,390.800 148.000 C 390.580 148.000,390.400 147.370,390.400 146.600 C 390.400 145.830,390.220 145.200,390.000 145.200 C 389.780 145.200,389.600 144.660,389.600 144.000 C 389.600 143.340,389.420 142.800,389.200 142.800 C 388.980 142.800,388.800 142.260,388.800 141.600 C 388.800 140.940,388.620 140.400,388.400 140.400 C 388.180 140.400,388.000 139.680,388.000 138.800 C 388.000 137.920,387.865 137.199,387.700 137.197 C 387.294 137.193,386.400 135.214,386.400 134.320 C 386.400 133.924,386.220 133.600,386.000 133.600 C 385.780 133.600,385.600 133.060,385.600 132.400 C 385.600 131.740,385.443 131.200,385.252 131.200 C 385.060 131.200,384.784 130.300,384.638 129.200 C 384.492 128.100,384.199 127.200,383.986 127.200 C 383.774 127.200,383.600 126.750,383.600 126.200 C 383.600 125.650,383.420 125.200,383.200 125.200 C 382.980 125.200,382.800 124.840,382.800 124.400 C 382.800 123.960,382.620 123.600,382.400 123.600 C 382.180 123.600,382.000 123.060,382.000 122.400 C 382.000 121.740,381.820 121.200,381.600 121.200 C 381.380 121.200,381.200 120.829,381.200 120.376 C 381.200 119.923,381.020 119.664,380.800 119.800 C 380.573 119.940,380.400 119.604,380.400 119.024 C 380.400 118.461,380.220 118.000,380.000 118.000 C 379.780 118.000,379.600 117.640,379.600 117.200 C 379.600 116.760,379.420 116.400,379.200 116.400 C 378.980 116.400,378.800 116.130,378.800 115.800 C 378.800 115.470,378.620 115.200,378.400 115.200 C 378.180 115.200,378.000 114.840,378.000 114.400 C 378.000 113.960,377.820 113.600,377.600 113.600 C 377.380 113.600,377.200 113.240,377.200 112.800 C 377.200 112.360,377.020 112.000,376.800 112.000 C 376.580 112.000,376.400 111.640,376.400 111.200 C 376.400 110.760,376.220 110.400,376.000 110.400 C 375.780 110.400,375.600 110.040,375.600 109.600 C 375.600 109.160,375.440 108.800,375.245 108.800 C 375.049 108.800,374.771 108.170,374.626 107.400 C 374.482 106.630,374.192 106.000,373.982 106.000 C 373.772 106.000,373.600 105.640,373.600 105.200 C 373.600 104.760,373.420 104.400,373.200 104.400 C 372.980 104.400,372.800 104.040,372.800 103.600 C 372.800 103.160,372.620 102.800,372.400 102.800 C 372.180 102.800,372.000 102.480,372.000 102.088 C 372.000 101.697,371.640 101.117,371.200 100.800 C 370.760 100.483,370.400 99.903,370.400 99.512 C 370.400 99.120,370.220 98.800,370.000 98.800 C 369.780 98.800,369.600 98.480,369.600 98.088 C 369.600 97.697,369.240 97.117,368.800 96.800 C 368.360 96.483,368.000 96.033,368.000 95.800 C 368.000 95.567,367.640 95.117,367.200 94.800 C 366.760 94.483,366.400 93.903,366.400 93.512 C 366.400 93.120,366.220 92.800,366.000 92.800 C 365.780 92.800,365.600 92.459,365.600 92.043 C 365.600 91.626,365.330 91.182,365.000 91.055 C 364.670 90.929,364.400 90.442,364.400 89.973 C 364.400 89.504,363.860 88.617,363.200 88.000 C 362.540 87.383,362.000 86.603,362.000 86.266 C 362.000 85.930,361.640 85.540,361.200 85.400 C 360.760 85.260,360.400 84.870,360.400 84.534 C 360.400 84.197,359.860 83.417,359.200 82.800 C 358.540 82.183,358.000 81.463,358.000 81.200 C 358.000 80.937,357.460 80.217,356.800 79.600 C 356.140 78.983,355.600 78.258,355.600 77.987 C 355.600 77.716,354.970 76.900,354.200 76.174 C 353.430 75.448,352.800 74.572,352.800 74.227 C 352.800 73.882,352.500 73.600,352.133 73.600 C 351.767 73.600,351.577 73.489,351.713 73.354 C 351.848 73.219,351.068 72.240,349.979 71.180 C 348.891 70.120,348.000 69.067,348.000 68.840 C 348.000 68.302,331.706 52.000,331.168 52.000 C 330.941 52.000,329.696 50.920,328.400 49.600 C 327.104 48.280,325.851 47.200,325.615 47.200 C 325.379 47.200,324.574 46.570,323.826 45.800 C 323.079 45.030,322.254 44.400,321.994 44.400 C 321.734 44.400,321.017 43.860,320.400 43.200 C 319.783 42.540,319.063 42.000,318.800 42.000 C 318.537 42.000,317.817 41.460,317.200 40.800 C 316.583 40.140,315.791 39.600,315.440 39.600 C 315.088 39.600,314.800 39.448,314.800 39.261 C 314.800 38.701,313.343 37.200,312.800 37.200 C 312.522 37.200,312.003 36.869,311.647 36.464 C 311.291 36.059,310.505 35.606,309.900 35.456 C 309.295 35.307,308.800 35.008,308.800 34.792 C 308.800 34.577,308.480 34.400,308.088 34.400 C 307.697 34.400,307.117 34.040,306.800 33.600 C 306.483 33.160,305.903 32.800,305.512 32.800 C 305.120 32.800,304.800 32.620,304.800 32.400 C 304.800 32.180,304.570 32.000,304.288 32.000 C 304.007 32.000,303.517 31.640,303.200 31.200 C 302.883 30.760,302.303 30.400,301.912 30.400 C 301.520 30.400,301.200 30.209,301.200 29.976 C 301.200 29.743,301.032 29.657,300.826 29.784 C 300.620 29.911,299.998 29.562,299.444 29.008 C 298.890 28.453,298.158 28.000,297.818 28.000 C 297.478 28.000,297.200 27.820,297.200 27.600 C 297.200 27.380,296.840 27.200,296.400 27.200 C 295.960 27.200,295.599 27.065,295.599 26.900 C 295.598 26.735,294.788 26.267,293.799 25.860 C 292.809 25.454,292.000 24.959,292.000 24.760 C 292.000 24.562,291.640 24.400,291.200 24.400 C 290.760 24.400,290.400 24.220,290.400 24.000 C 290.400 23.780,290.040 23.600,289.600 23.600 C 289.160 23.600,288.800 23.420,288.800 23.200 C 288.800 22.980,288.440 22.800,288.000 22.800 C 287.560 22.800,287.200 22.620,287.200 22.400 C 287.200 22.180,286.840 22.000,286.400 22.000 C 285.960 22.000,285.600 21.820,285.600 21.600 C 285.600 21.380,285.150 21.200,284.600 21.200 C 284.050 21.200,283.600 21.020,283.600 20.800 C 283.600 20.580,283.240 20.400,282.800 20.400 C 282.360 20.400,282.000 20.220,282.000 20.000 C 282.000 19.780,281.640 19.600,281.200 19.600 C 280.760 19.600,280.400 19.420,280.400 19.200 C 280.400 18.980,280.040 18.800,279.600 18.800 C 279.160 18.800,278.800 18.620,278.800 18.400 C 278.800 18.180,278.260 18.000,277.600 18.000 C 276.940 18.000,276.400 17.820,276.400 17.600 C 276.400 17.380,276.040 17.200,275.600 17.200 C 275.160 17.200,274.800 17.020,274.800 16.800 C 274.800 16.580,274.350 16.400,273.800 16.400 C 273.250 16.400,272.800 16.250,272.800 16.067 C 272.800 15.883,272.575 15.703,272.300 15.666 C 269.898 15.343,268.800 15.058,268.800 14.756 C 268.800 14.560,268.440 14.400,268.000 14.400 C 267.560 14.400,267.200 14.220,267.200 14.000 C 267.200 13.780,266.660 13.600,266.000 13.600 C 265.340 13.600,264.800 13.420,264.800 13.200 C 264.800 12.980,264.350 12.800,263.800 12.800 C 263.250 12.800,262.800 12.620,262.800 12.400 C 262.800 12.180,262.260 12.000,261.600 12.000 C 260.940 12.000,260.400 11.820,260.400 11.600 C 260.400 11.380,259.680 11.200,258.800 11.200 C 257.920 11.200,257.200 11.020,257.200 10.800 C 257.200 10.580,256.660 10.400,256.000 10.400 C 255.340 10.400,254.800 10.220,254.800 10.000 C 254.800 9.780,254.170 9.600,253.400 9.600 C 252.630 9.600,252.000 9.420,252.000 9.200 C 252.000 8.980,251.460 8.800,250.800 8.800 C 250.140 8.800,249.600 8.620,249.600 8.400 C 249.600 8.180,248.700 8.000,247.600 8.000 C 246.500 8.000,245.600 7.820,245.600 7.600 C 245.600 7.380,244.970 7.200,244.200 7.200 C 243.430 7.200,242.800 7.020,242.800 6.800 C 242.800 6.580,241.900 6.400,240.800 6.400 C 239.700 6.400,238.800 6.237,238.800 6.038 C 238.800 5.840,236.910 5.548,234.600 5.391 C 232.290 5.233,230.400 4.946,230.400 4.752 C 230.400 4.558,229.050 4.400,227.400 4.400 C 225.667 4.400,224.400 4.231,224.400 4.000 C 224.400 3.760,222.800 3.600,220.400 3.600 C 218.000 3.600,216.400 3.440,216.400 3.200 C 216.400 2.940,210.667 2.800,200.000 2.800 C 189.333 2.800,183.600 2.940,183.600 3.200 M211.200 26.000 C 211.200 26.241,212.867 26.400,215.400 26.400 C 217.933 26.400,219.600 26.559,219.600 26.800 C 219.600 27.031,220.859 27.200,222.576 27.200 C 224.213 27.200,225.664 27.380,225.800 27.600 C 225.936 27.820,227.027 28.000,228.224 28.000 C 229.421 28.000,230.400 28.180,230.400 28.400 C 230.400 28.620,231.300 28.800,232.400 28.800 C 233.500 28.800,234.400 28.980,234.400 29.200 C 234.400 29.420,235.210 29.600,236.200 29.600 C 237.190 29.600,238.000 29.780,238.000 30.000 C 238.000 30.220,238.720 30.400,239.600 30.400 C 240.480 30.400,241.200 30.580,241.200 30.800 C 241.200 31.020,241.920 31.200,242.800 31.200 C 243.680 31.200,244.400 31.380,244.400 31.600 C 244.400 31.820,245.030 32.000,245.800 32.000 C 246.570 32.000,247.200 32.180,247.200 32.400 C 247.200 32.620,247.740 32.800,248.400 32.800 C 249.060 32.800,249.600 32.980,249.600 33.200 C 249.600 33.420,250.320 33.600,251.200 33.600 C 252.080 33.600,252.800 33.759,252.800 33.954 C 252.800 34.149,253.790 34.432,255.000 34.583 C 256.210 34.734,257.200 35.025,257.200 35.229 C 257.200 35.433,257.740 35.600,258.400 35.600 C 259.060 35.600,259.600 35.780,259.600 36.000 C 259.600 36.220,259.960 36.400,260.400 36.400 C 260.840 36.400,261.200 36.580,261.200 36.800 C 261.200 37.020,261.740 37.200,262.400 37.200 C 263.060 37.200,263.600 37.380,263.600 37.600 C 263.600 37.820,263.960 38.000,264.400 38.000 C 264.840 38.000,265.200 38.180,265.200 38.400 C 265.200 38.620,265.650 38.800,266.200 38.800 C 266.750 38.800,267.200 38.980,267.200 39.200 C 267.200 39.420,267.560 39.600,268.000 39.600 C 268.440 39.600,268.800 39.780,268.800 40.000 C 268.800 40.220,269.160 40.400,269.600 40.400 C 270.040 40.400,270.400 40.580,270.400 40.800 C 270.400 41.020,270.940 41.200,271.600 41.200 C 272.260 41.200,272.800 41.391,272.800 41.624 C 272.800 41.857,272.965 41.945,273.168 41.820 C 273.370 41.695,273.807 41.864,274.139 42.196 C 274.471 42.528,275.036 42.800,275.395 42.800 C 275.754 42.800,275.936 42.980,275.800 43.200 C 275.664 43.420,275.923 43.600,276.376 43.600 C 276.829 43.600,277.200 43.764,277.200 43.965 C 277.200 44.166,277.920 44.451,278.800 44.600 C 279.680 44.749,280.400 45.034,280.400 45.235 C 280.400 45.436,280.760 45.600,281.200 45.600 C 281.640 45.600,282.000 45.780,282.000 46.000 C 282.000 46.220,282.360 46.400,282.800 46.400 C 283.240 46.400,283.600 46.580,283.600 46.800 C 283.600 47.020,283.948 47.200,284.373 47.200 C 284.798 47.200,285.260 47.560,285.400 48.000 C 285.540 48.440,286.002 48.800,286.427 48.800 C 286.852 48.800,287.200 48.980,287.200 49.200 C 287.200 49.420,287.560 49.600,288.000 49.600 C 288.440 49.600,288.800 49.780,288.800 50.000 C 288.800 50.220,289.081 50.400,289.424 50.400 C 289.767 50.400,289.936 50.580,289.800 50.800 C 289.664 51.020,289.923 51.200,290.376 51.200 C 290.829 51.200,291.200 51.380,291.200 51.600 C 291.200 51.820,291.520 52.000,291.912 52.000 C 292.303 52.000,292.883 52.360,293.200 52.800 C 293.517 53.240,294.097 53.600,294.488 53.600 C 294.880 53.600,295.200 53.768,295.200 53.973 C 295.200 54.178,295.605 54.474,296.100 54.630 C 296.595 54.787,297.291 55.249,297.647 55.657 C 298.003 56.066,298.548 56.400,298.859 56.400 C 299.169 56.400,299.683 56.760,300.000 57.200 C 300.317 57.640,300.825 58.000,301.128 58.000 C 301.431 58.000,302.183 58.540,302.800 59.200 C 303.417 59.860,304.209 60.400,304.560 60.400 C 304.912 60.400,305.200 60.552,305.200 60.739 C 305.200 61.281,306.649 62.800,307.165 62.800 C 307.424 62.800,308.070 63.205,308.599 63.700 C 310.219 65.215,310.748 65.600,311.209 65.600 C 311.739 65.600,315.600 69.492,315.600 70.027 C 315.600 70.232,315.874 70.400,316.208 70.400 C 316.998 70.400,322.509 75.642,328.200 81.807 C 329.740 83.475,331.945 85.817,333.100 87.011 C 334.255 88.205,335.200 89.451,335.200 89.778 C 335.200 90.105,335.830 91.003,336.600 91.773 C 337.370 92.543,338.000 93.449,338.000 93.787 C 338.000 94.124,338.152 94.400,338.339 94.400 C 338.892 94.400,340.400 95.854,340.400 96.386 C 340.400 96.657,340.940 97.383,341.600 98.000 C 342.260 98.617,342.800 99.369,342.800 99.672 C 342.800 99.975,343.160 100.483,343.600 100.800 C 344.040 101.117,344.400 101.697,344.400 102.088 C 344.400 102.480,344.539 102.800,344.709 102.800 C 344.879 102.800,345.357 103.430,345.772 104.200 C 346.187 104.970,346.678 105.600,346.863 105.600 C 347.048 105.600,347.200 105.920,347.200 106.312 C 347.200 106.703,347.560 107.283,348.000 107.600 C 348.440 107.917,348.800 108.482,348.800 108.855 C 348.800 109.228,348.967 109.593,349.170 109.667 C 349.374 109.740,349.599 110.070,349.670 110.400 C 349.742 110.730,350.115 111.291,350.500 111.647 C 350.885 112.003,351.200 112.588,351.200 112.947 C 351.200 113.306,351.380 113.600,351.600 113.600 C 351.820 113.600,352.000 113.870,352.000 114.200 C 352.000 114.530,352.180 114.800,352.400 114.800 C 352.620 114.800,352.800 115.120,352.800 115.512 C 352.800 115.903,353.160 116.483,353.600 116.800 C 354.040 117.117,354.400 117.697,354.400 118.088 C 354.400 118.480,354.564 118.800,354.765 118.800 C 354.966 118.800,355.251 119.520,355.400 120.400 C 355.549 121.280,355.834 122.000,356.035 122.000 C 356.236 122.000,356.400 122.360,356.400 122.800 C 356.400 123.240,356.580 123.600,356.800 123.600 C 357.020 123.600,357.200 123.870,357.200 124.200 C 357.200 124.530,357.380 124.800,357.600 124.800 C 357.820 124.800,358.000 125.160,358.000 125.600 C 358.000 126.040,358.180 126.400,358.400 126.400 C 358.620 126.400,358.800 126.940,358.800 127.600 C 358.800 128.260,358.980 128.800,359.200 128.800 C 359.420 128.800,359.600 129.160,359.600 129.600 C 359.600 130.040,359.780 130.400,360.000 130.400 C 360.220 130.400,360.400 130.760,360.400 131.200 C 360.400 131.640,360.580 132.000,360.800 132.000 C 361.020 132.000,361.200 132.360,361.200 132.800 C 361.200 133.240,361.380 133.600,361.600 133.600 C 361.820 133.600,362.000 134.050,362.000 134.600 C 362.000 135.150,362.180 135.600,362.400 135.600 C 362.620 135.600,362.800 135.960,362.800 136.400 C 362.800 136.840,362.980 137.200,363.200 137.200 C 363.420 137.200,363.600 137.740,363.600 138.400 C 363.600 139.060,363.780 139.600,364.000 139.600 C 364.220 139.600,364.400 140.140,364.400 140.800 C 364.400 141.460,364.557 142.000,364.748 142.000 C 364.940 142.000,365.215 142.893,365.360 143.984 C 365.505 145.075,365.798 146.075,366.012 146.207 C 366.225 146.339,366.400 146.977,366.400 147.624 C 366.400 148.271,366.580 148.800,366.800 148.800 C 367.020 148.800,367.200 149.340,367.200 150.000 C 367.200 150.660,367.380 151.200,367.600 151.200 C 367.820 151.200,368.000 151.920,368.000 152.800 C 368.000 153.680,368.180 154.400,368.400 154.400 C 368.620 154.400,368.800 154.850,368.800 155.400 C 368.800 155.950,368.980 156.400,369.200 156.400 C 369.420 156.400,369.600 157.120,369.600 158.000 C 369.600 158.880,369.780 159.600,370.000 159.600 C 370.220 159.600,370.400 160.500,370.400 161.600 C 370.400 162.700,370.580 163.600,370.800 163.600 C 371.020 163.600,371.200 164.230,371.200 165.000 C 371.200 165.770,371.380 166.400,371.600 166.400 C 371.822 166.400,372.000 167.467,372.000 168.800 C 372.000 170.133,372.178 171.200,372.400 171.200 C 372.620 171.200,372.800 172.190,372.800 173.400 C 372.800 174.610,372.980 175.600,373.200 175.600 C 373.433 175.600,373.600 176.933,373.600 178.800 C 373.600 180.667,373.767 182.000,374.000 182.000 C 374.243 182.000,374.400 183.800,374.400 186.600 C 374.400 189.400,374.557 191.200,374.800 191.200 C 375.055 191.200,375.200 194.400,375.200 200.000 C 375.200 205.600,375.055 208.800,374.800 208.800 C 374.555 208.800,374.400 210.733,374.400 213.800 C 374.400 216.867,374.245 218.800,374.000 218.800 C 373.767 218.800,373.600 220.133,373.600 222.000 C 373.600 223.867,373.433 225.200,373.200 225.200 C 372.980 225.200,372.800 226.190,372.800 227.400 C 372.800 228.610,372.620 229.600,372.400 229.600 C 372.178 229.600,372.000 230.667,372.000 232.000 C 372.000 233.333,371.822 234.400,371.600 234.400 C 371.380 234.400,371.200 235.030,371.200 235.800 C 371.200 236.570,371.020 237.200,370.800 237.200 C 370.580 237.200,370.400 238.100,370.400 239.200 C 370.400 240.300,370.220 241.200,370.000 241.200 C 369.780 241.200,369.600 241.920,369.600 242.800 C 369.600 243.680,369.420 244.400,369.200 244.400 C 368.980 244.400,368.800 244.850,368.800 245.400 C 368.800 245.950,368.620 246.400,368.400 246.400 C 368.180 246.400,368.000 247.120,368.000 248.000 C 368.000 248.880,367.820 249.600,367.600 249.600 C 367.380 249.600,367.200 250.140,367.200 250.800 C 367.200 251.460,367.020 252.000,366.800 252.000 C 366.580 252.000,366.400 252.529,366.400 253.176 C 366.400 253.823,366.225 254.461,366.012 254.593 C 365.798 254.725,365.505 255.725,365.360 256.816 C 365.215 257.907,364.940 258.800,364.748 258.800 C 364.557 258.800,364.400 259.340,364.400 260.000 C 364.400 260.660,364.220 261.200,364.000 261.200 C 363.780 261.200,363.600 261.740,363.600 262.400 C 363.600 263.060,363.420 263.600,363.200 263.600 C 362.980 263.600,362.800 263.960,362.800 264.400 C 362.800 264.840,362.620 265.200,362.400 265.200 C 362.180 265.200,362.000 265.650,362.000 266.200 C 362.000 266.750,361.820 267.200,361.600 267.200 C 361.380 267.200,361.200 267.560,361.200 268.000 C 361.200 268.440,361.020 268.800,360.800 268.800 C 360.580 268.800,360.400 269.160,360.400 269.600 C 360.400 270.040,360.220 270.400,360.000 270.400 C 359.780 270.400,359.600 270.760,359.600 271.200 C 359.600 271.640,359.420 272.000,359.200 272.000 C 358.980 272.000,358.800 272.540,358.800 273.200 C 358.800 273.860,358.620 274.400,358.400 274.400 C 358.180 274.400,358.000 274.771,358.000 275.224 C 358.000 275.677,357.820 275.936,357.600 275.800 C 357.380 275.664,357.200 275.923,357.200 276.376 C 357.200 276.829,357.020 277.200,356.800 277.200 C 356.580 277.200,356.400 277.560,356.400 278.000 C 356.400 278.440,356.240 278.800,356.045 278.800 C 355.849 278.800,355.567 279.452,355.417 280.249 C 355.113 281.870,354.509 283.095,353.570 283.996 C 353.223 284.328,352.684 285.185,352.372 285.900 C 352.060 286.615,351.669 287.200,351.502 287.200 C 351.336 287.200,351.200 287.520,351.200 287.912 C 351.200 288.303,350.840 288.883,350.400 289.200 C 349.960 289.517,349.600 290.097,349.600 290.488 C 349.600 290.880,349.420 291.200,349.200 291.200 C 348.980 291.200,348.800 291.520,348.800 291.912 C 348.800 292.303,348.440 292.883,348.000 293.200 C 347.560 293.517,347.200 294.097,347.200 294.488 C 347.200 294.880,347.048 295.200,346.863 295.200 C 346.678 295.200,346.187 295.830,345.772 296.600 C 345.357 297.370,344.879 298.000,344.709 298.000 C 344.539 298.000,344.400 298.320,344.400 298.712 C 344.400 299.103,344.040 299.683,343.600 300.000 C 343.160 300.317,342.800 300.825,342.800 301.128 C 342.800 301.431,342.260 302.183,341.600 302.800 C 340.940 303.417,340.400 304.209,340.400 304.560 C 340.400 304.912,340.248 305.200,340.061 305.200 C 339.519 305.200,338.000 306.649,338.000 307.165 C 338.000 307.909,335.886 309.858,335.696 309.289 C 335.607 309.020,335.098 308.800,334.567 308.800 C 334.035 308.800,333.600 308.620,333.600 308.400 C 333.600 308.180,333.060 308.000,332.400 308.000 C 331.740 308.000,331.200 307.820,331.200 307.600 C 331.200 307.380,330.660 307.200,330.000 307.200 C 329.340 307.200,328.800 307.020,328.800 306.800 C 328.800 306.580,328.091 306.400,327.224 306.400 C 326.357 306.400,325.542 306.230,325.414 306.023 C 325.286 305.816,323.926 305.523,322.391 305.372 C 320.856 305.220,319.600 304.940,319.600 304.748 C 319.600 304.557,318.880 304.400,318.000 304.400 C 317.120 304.400,316.400 304.220,316.400 304.000 C 316.400 303.780,315.770 303.600,315.000 303.600 C 314.230 303.600,313.600 303.420,313.600 303.200 C 313.600 302.980,312.700 302.800,311.600 302.800 C 310.500 302.800,309.600 302.620,309.600 302.400 C 309.600 302.180,308.880 302.000,308.000 302.000 C 307.120 302.000,306.400 301.820,306.400 301.600 C 306.400 301.380,305.770 301.200,305.000 301.200 C 304.230 301.200,303.600 301.020,303.600 300.800 C 303.600 300.580,302.700 300.400,301.600 300.400 C 300.500 300.400,299.600 300.220,299.600 300.000 C 299.600 299.780,298.880 299.600,298.000 299.600 C 297.120 299.600,296.400 299.420,296.400 299.200 C 296.400 298.980,295.770 298.800,295.000 298.800 C 294.230 298.800,293.600 298.620,293.600 298.400 C 293.600 298.180,292.880 298.000,292.000 298.000 C 291.120 298.000,290.400 297.820,290.400 297.600 C 290.400 297.380,289.680 297.200,288.800 297.200 C 287.920 297.200,287.200 297.020,287.200 296.800 C 287.200 296.580,286.705 296.397,286.100 296.394 C 285.495 296.391,284.280 296.129,283.400 295.812 C 282.520 295.495,281.125 295.227,280.300 295.218 C 279.475 295.208,278.800 295.020,278.800 294.800 C 278.800 294.580,278.260 294.400,277.600 294.400 C 276.940 294.400,276.400 294.220,276.400 294.000 C 276.400 293.780,275.950 293.600,275.400 293.600 C 274.850 293.600,274.400 293.420,274.400 293.200 C 274.400 292.980,273.860 292.800,273.200 292.800 C 272.540 292.800,272.000 292.620,272.000 292.400 C 272.000 292.180,271.460 292.000,270.800 292.000 C 270.140 292.000,269.600 291.820,269.600 291.600 C 269.600 291.380,269.060 291.200,268.400 291.200 C 267.740 291.200,267.200 291.020,267.200 290.800 C 267.200 290.580,266.840 290.400,266.400 290.400 C 265.960 290.400,265.600 290.220,265.600 290.000 C 265.600 289.780,265.150 289.600,264.600 289.600 C 264.050 289.600,263.600 289.420,263.600 289.200 C 263.600 288.980,263.240 288.800,262.800 288.800 C 262.360 288.800,262.000 288.620,262.000 288.400 C 262.000 288.180,261.640 288.000,261.200 288.000 C 260.760 288.000,260.400 287.820,260.400 287.600 C 260.400 287.380,260.122 287.200,259.783 287.200 C 259.444 287.200,258.783 286.842,258.313 286.405 C 257.844 285.968,256.861 285.498,256.130 285.360 C 255.398 285.223,254.800 284.979,254.800 284.817 C 254.800 284.304,253.326 282.800,252.825 282.800 C 252.178 282.800,251.200 281.787,251.200 281.117 C 251.200 280.820,250.840 280.317,250.400 280.000 C 249.960 279.683,249.600 279.143,249.600 278.800 C 249.600 278.457,249.240 277.917,248.800 277.600 C 248.360 277.283,248.000 276.795,248.000 276.515 C 248.000 276.236,247.640 275.782,247.200 275.507 C 246.760 275.232,246.400 274.731,246.400 274.392 C 246.400 274.054,246.040 273.517,245.600 273.200 C 245.160 272.883,244.800 272.311,244.800 271.930 C 244.800 271.548,244.350 270.786,243.800 270.236 C 243.250 269.686,242.800 268.998,242.800 268.706 C 242.800 268.415,242.440 267.917,242.000 267.600 C 240.962 266.852,240.983 265.926,242.055 265.188 C 243.555 264.157,244.800 262.783,244.800 262.160 C 244.800 261.827,245.880 260.496,247.200 259.200 C 248.520 257.904,249.600 256.630,249.600 256.369 C 249.600 255.849,251.117 254.400,251.661 254.400 C 251.848 254.400,252.000 254.080,252.000 253.688 C 252.000 253.297,252.360 252.717,252.800 252.400 C 253.240 252.083,253.600 251.586,253.600 251.295 C 253.600 250.799,253.877 250.379,255.100 249.015 C 255.375 248.708,255.600 248.214,255.600 247.917 C 255.600 247.620,255.960 247.117,256.400 246.800 C 256.840 246.483,257.200 245.915,257.200 245.539 C 257.200 245.162,257.560 244.740,258.000 244.600 C 258.440 244.460,258.800 243.998,258.800 243.573 C 258.800 243.148,258.980 242.800,259.200 242.800 C 259.420 242.800,259.600 242.480,259.600 242.088 C 259.600 241.697,259.960 241.117,260.400 240.800 C 260.840 240.483,261.200 239.943,261.200 239.600 C 261.200 239.257,261.560 238.717,262.000 238.400 C 262.440 238.083,262.800 237.503,262.800 237.112 C 262.800 236.720,262.980 236.400,263.200 236.400 C 263.420 236.400,263.600 236.059,263.600 235.643 C 263.600 235.226,263.870 234.782,264.200 234.655 C 264.530 234.529,264.800 234.059,264.800 233.613 C 264.800 233.166,264.980 232.800,265.200 232.800 C 265.420 232.800,265.600 232.480,265.600 232.088 C 265.600 231.697,265.960 231.117,266.400 230.800 C 266.840 230.483,267.200 229.903,267.200 229.512 C 267.200 229.120,267.380 228.800,267.600 228.800 C 267.820 228.800,268.000 228.480,268.000 228.088 C 268.000 227.697,268.360 227.117,268.800 226.800 C 269.240 226.483,269.600 225.915,269.600 225.539 C 269.600 225.162,269.960 224.740,270.400 224.600 C 270.840 224.460,271.200 223.998,271.200 223.573 C 271.200 223.148,271.380 222.800,271.600 222.800 C 271.820 222.800,272.000 222.480,272.000 222.088 C 272.000 221.697,272.360 221.117,272.800 220.800 C 273.240 220.483,273.600 219.903,273.600 219.512 C 273.600 219.120,273.780 218.800,274.000 218.800 C 274.220 218.800,274.400 218.453,274.400 218.029 C 274.400 217.604,274.670 216.987,275.000 216.657 C 275.330 216.327,275.600 215.774,275.600 215.429 C 275.600 215.083,275.780 214.800,276.000 214.800 C 276.220 214.800,276.400 214.570,276.400 214.288 C 276.400 214.007,276.760 213.517,277.200 213.200 C 277.640 212.883,278.000 212.303,278.000 211.912 C 278.000 211.520,278.180 211.200,278.400 211.200 C 278.620 211.200,278.800 210.880,278.800 210.488 C 278.800 210.097,279.160 209.517,279.600 209.200 C 280.040 208.883,280.400 208.303,280.400 207.912 C 280.400 207.520,280.580 207.200,280.800 207.200 C 281.020 207.200,281.200 206.880,281.200 206.488 C 281.200 206.097,281.560 205.517,282.000 205.200 C 282.440 204.883,282.800 204.393,282.800 204.112 C 282.800 203.830,282.980 203.600,283.200 203.600 C 283.420 203.600,283.600 203.240,283.600 202.800 C 283.600 202.360,283.757 202.000,283.948 202.000 C 284.140 202.000,284.416 201.100,284.562 200.000 C 284.708 198.900,285.001 198.000,285.214 198.000 C 285.426 198.000,285.600 197.460,285.600 196.800 C 285.600 196.140,285.780 195.600,286.000 195.600 C 286.220 195.600,286.400 195.150,286.400 194.600 C 286.400 194.050,286.580 193.600,286.800 193.600 C 287.020 193.600,287.200 192.700,287.200 191.600 C 287.200 190.500,287.380 189.600,287.600 189.600 C 287.845 189.600,288.000 187.667,288.000 184.600 C 288.000 181.533,287.845 179.600,287.600 179.600 C 287.380 179.600,287.200 179.240,287.200 178.800 C 287.200 178.360,287.020 178.000,286.800 178.000 C 286.580 178.000,286.400 177.640,286.400 177.200 C 286.400 176.760,286.220 176.400,286.000 176.400 C 285.780 176.400,285.600 176.207,285.600 175.971 C 285.600 175.736,285.375 175.308,285.100 175.020 C 284.825 174.733,284.335 174.116,284.012 173.649 C 283.688 173.182,283.103 172.800,282.712 172.800 C 282.320 172.800,282.000 172.620,282.000 172.400 C 282.000 172.180,281.640 172.000,281.200 172.000 C 280.760 172.000,280.400 171.820,280.400 171.600 C 280.400 171.380,280.040 171.200,279.600 171.200 C 278.843 171.200,278.800 170.933,278.800 166.200 C 278.800 163.133,278.955 161.200,279.200 161.200 C 279.461 161.200,279.600 154.400,279.600 141.600 C 279.600 128.800,279.461 122.000,279.200 122.000 C 278.978 122.000,278.800 120.933,278.800 119.600 C 278.800 118.267,278.622 117.200,278.400 117.200 C 278.180 117.200,278.000 116.570,278.000 115.800 C 278.000 115.030,277.820 114.400,277.600 114.400 C 277.380 114.400,277.200 113.860,277.200 113.200 C 277.200 112.540,277.020 112.000,276.800 112.000 C 276.580 112.000,276.400 111.460,276.400 110.800 C 276.400 110.140,276.220 109.600,276.000 109.600 C 275.780 109.600,275.600 109.075,275.600 108.433 C 275.600 107.792,275.408 107.203,275.174 107.125 C 274.940 107.047,274.646 106.222,274.522 105.291 C 274.397 104.361,274.138 103.600,273.947 103.600 C 273.756 103.600,273.600 103.240,273.600 102.800 C 273.600 102.360,273.420 102.000,273.200 102.000 C 272.980 102.000,272.800 101.680,272.800 101.288 C 272.800 100.897,272.440 100.317,272.000 100.000 C 271.560 99.683,271.200 99.143,271.200 98.800 C 271.200 98.457,270.840 97.917,270.400 97.600 C 269.960 97.283,269.600 96.715,269.600 96.339 C 269.600 95.962,269.240 95.540,268.800 95.400 C 268.360 95.260,268.000 94.870,268.000 94.533 C 268.000 94.196,267.190 93.156,266.200 92.220 C 265.210 91.285,264.400 90.217,264.400 89.847 C 264.400 89.107,261.884 86.400,261.196 86.400 C 260.688 86.400,260.149 85.973,257.787 83.700 C 256.816 82.765,255.746 82.000,255.411 82.000 C 255.075 82.000,254.800 81.848,254.800 81.661 C 254.800 81.108,253.346 79.600,252.814 79.600 C 252.543 79.600,251.817 79.060,251.200 78.400 C 250.583 77.740,249.791 77.200,249.440 77.200 C 249.088 77.200,248.800 77.033,248.800 76.829 C 248.800 76.625,248.080 76.140,247.200 75.752 C 246.320 75.364,245.600 74.901,245.600 74.723 C 245.600 74.545,245.370 74.400,245.088 74.400 C 244.807 74.400,244.317 74.040,244.000 73.600 C 243.683 73.160,243.103 72.800,242.712 72.800 C 242.320 72.800,242.000 72.620,242.000 72.400 C 242.000 72.180,241.640 72.000,241.200 72.000 C 240.760 72.000,240.400 71.820,240.400 71.600 C 240.400 71.380,240.080 71.200,239.688 71.200 C 239.297 71.200,238.717 70.840,238.400 70.400 C 238.083 69.960,237.503 69.600,237.112 69.600 C 236.720 69.600,236.400 69.420,236.400 69.200 C 236.400 68.980,236.040 68.800,235.600 68.800 C 235.160 68.800,234.800 68.620,234.800 68.400 C 234.800 68.180,234.530 68.000,234.200 68.000 C 233.870 68.000,233.600 67.820,233.600 67.600 C 233.600 67.380,233.240 67.200,232.800 67.200 C 232.360 67.200,232.000 67.020,232.000 66.800 C 232.000 66.580,231.640 66.400,231.200 66.400 C 230.760 66.400,230.400 66.236,230.400 66.035 C 230.400 65.834,229.680 65.549,228.800 65.400 C 227.920 65.251,227.200 64.966,227.200 64.765 C 227.200 64.564,226.840 64.400,226.400 64.400 C 225.960 64.400,225.600 64.220,225.600 64.000 C 225.600 63.780,225.330 63.600,225.000 63.600 C 224.670 63.600,224.400 63.420,224.400 63.200 C 224.400 62.980,224.040 62.800,223.600 62.800 C 223.160 62.800,222.800 62.620,222.800 62.400 C 222.800 62.180,222.260 62.000,221.600 62.000 C 220.940 62.000,220.400 61.820,220.400 61.600 C 220.400 61.380,220.040 61.200,219.600 61.200 C 219.160 61.200,218.800 61.020,218.800 60.800 C 218.800 60.580,218.440 60.400,218.000 60.400 C 217.560 60.400,217.200 60.220,217.200 60.000 C 217.200 59.780,216.660 59.600,216.000 59.600 C 215.340 59.600,214.800 59.420,214.800 59.200 C 214.800 58.980,214.350 58.800,213.800 58.800 C 213.250 58.800,212.800 58.620,212.800 58.400 C 212.800 58.180,212.260 58.000,211.600 58.000 C 210.940 58.000,210.400 57.820,210.400 57.600 C 210.400 57.380,209.860 57.200,209.200 57.200 C 208.540 57.200,208.000 57.020,208.000 56.800 C 208.000 56.580,207.471 56.400,206.824 56.400 C 206.177 56.400,205.542 56.230,205.414 56.023 C 205.286 55.816,203.926 55.523,202.391 55.372 C 200.856 55.220,199.600 54.940,199.600 54.748 C 199.600 54.557,198.700 54.400,197.600 54.400 C 196.500 54.400,195.600 54.220,195.600 54.000 C 195.600 53.759,193.933 53.600,191.400 53.600 C 188.867 53.600,187.200 53.441,187.200 53.200 C 187.200 52.980,186.570 52.800,185.800 52.800 C 185.030 52.800,184.400 52.980,184.400 53.200 C 184.400 53.420,183.582 53.600,182.582 53.600 C 181.238 53.600,180.522 53.835,179.837 54.500 C 179.327 54.995,178.526 55.665,178.055 55.988 C 177.585 56.312,177.200 56.897,177.200 57.288 C 177.200 57.680,177.020 58.000,176.800 58.000 C 176.580 58.000,176.400 58.540,176.400 59.200 C 176.400 59.860,176.238 60.400,176.039 60.400 C 175.841 60.400,175.553 61.480,175.400 62.800 C 175.247 64.120,174.959 65.200,174.761 65.200 C 174.562 65.200,174.400 65.430,174.400 65.712 C 174.400 65.993,174.040 66.483,173.600 66.800 C 173.160 67.117,172.800 67.620,172.800 67.917 C 172.800 68.613,171.813 69.600,171.117 69.600 C 170.820 69.600,170.317 69.960,170.000 70.400 C 169.661 70.870,168.965 71.200,168.312 71.200 C 167.700 71.200,167.200 71.380,167.200 71.600 C 167.200 71.820,166.750 72.000,166.200 72.000 C 165.650 72.000,165.200 72.180,165.200 72.400 C 165.200 72.620,164.840 72.800,164.400 72.800 C 163.960 72.800,163.600 72.980,163.600 73.200 C 163.600 73.420,163.240 73.600,162.800 73.600 C 162.360 73.600,162.000 73.780,162.000 74.000 C 162.000 74.220,161.640 74.400,161.200 74.400 C 160.760 74.400,160.400 74.558,160.400 74.750 C 160.400 75.077,158.166 75.772,157.500 75.654 C 157.335 75.624,157.200 75.780,157.200 76.000 C 157.200 76.220,156.810 76.400,156.333 76.400 C 155.857 76.400,155.578 76.511,155.714 76.648 C 156.069 77.003,154.974 78.000,154.229 78.000 C 153.883 78.000,153.600 78.180,153.600 78.400 C 153.600 78.620,153.312 78.800,152.960 78.800 C 152.609 78.800,151.817 79.340,151.200 80.000 C 150.583 80.660,149.863 81.200,149.600 81.200 C 149.337 81.200,148.617 81.740,148.000 82.400 C 147.383 83.060,146.745 83.600,146.582 83.600 C 145.993 83.600,137.200 92.222,137.200 92.800 C 137.200 93.039,136.750 93.720,136.200 94.313 C 135.650 94.907,135.200 95.579,135.200 95.808 C 135.200 96.036,134.840 96.483,134.400 96.800 C 133.960 97.117,133.600 97.657,133.600 98.000 C 133.600 98.343,133.240 98.883,132.800 99.200 C 132.360 99.517,132.000 100.097,132.000 100.488 C 132.000 100.880,131.820 101.200,131.600 101.200 C 131.380 101.200,131.200 101.560,131.200 102.000 C 131.200 102.440,131.020 102.800,130.800 102.800 C 130.580 102.800,130.400 103.160,130.400 103.600 C 130.400 104.040,130.220 104.400,130.000 104.400 C 129.780 104.400,129.600 104.670,129.600 105.000 C 129.600 105.330,129.420 105.600,129.200 105.600 C 128.980 105.600,128.800 106.140,128.800 106.800 C 128.800 107.460,128.620 108.000,128.400 108.000 C 128.180 108.000,128.000 108.360,128.000 108.800 C 128.000 109.240,127.820 109.600,127.600 109.600 C 127.380 109.600,127.200 110.140,127.200 110.800 C 127.200 111.460,127.020 112.000,126.800 112.000 C 126.580 112.000,126.400 112.684,126.400 113.520 C 126.400 114.356,126.187 115.253,125.927 115.513 C 125.608 115.832,125.399 118.550,125.284 123.893 C 125.191 128.242,124.954 131.971,124.757 132.180 C 124.270 132.699,124.293 149.496,124.781 149.667 C 125.401 149.883,125.519 169.601,124.900 169.600 C 124.625 169.600,124.400 169.780,124.400 170.000 C 124.400 170.220,124.040 170.400,123.600 170.400 C 123.160 170.400,122.800 170.580,122.800 170.800 C 122.800 171.020,122.526 171.200,122.191 171.200 C 121.517 171.200,117.200 175.344,117.200 175.991 C 117.200 176.216,117.020 176.400,116.800 176.400 C 116.580 176.400,116.400 176.745,116.400 177.167 C 116.400 177.588,116.190 178.003,115.932 178.089 C 115.641 178.186,115.399 179.590,115.289 181.823 C 115.192 183.790,114.952 185.571,114.756 185.780 C 114.297 186.270,114.292 188.000,114.750 188.000 C 114.942 188.000,115.180 189.534,115.279 191.409 C 115.377 193.284,115.670 195.030,115.929 195.289 C 116.188 195.548,116.400 196.264,116.400 196.880 C 116.400 197.496,116.580 198.000,116.800 198.000 C 117.020 198.000,117.200 198.540,117.200 199.200 C 117.200 199.860,117.380 200.400,117.600 200.400 C 117.820 200.400,118.000 200.760,118.000 201.200 C 118.000 201.640,118.180 202.000,118.400 202.000 C 118.620 202.000,118.800 202.360,118.800 202.800 C 118.800 203.240,118.980 203.600,119.200 203.600 C 119.420 203.600,119.600 203.830,119.600 204.112 C 119.600 204.393,119.960 204.883,120.400 205.200 C 120.840 205.517,121.200 206.097,121.200 206.488 C 121.200 206.880,121.380 207.200,121.600 207.200 C 121.820 207.200,122.000 207.520,122.000 207.912 C 122.000 208.303,122.360 208.883,122.800 209.200 C 123.240 209.517,123.600 210.031,123.600 210.341 C 123.600 210.652,123.931 211.197,124.336 211.553 C 124.741 211.909,125.184 212.654,125.321 213.208 C 125.457 213.762,125.936 214.610,126.385 215.091 C 126.833 215.573,127.200 216.204,127.200 216.495 C 127.200 216.786,127.560 217.283,128.000 217.600 C 128.440 217.917,128.800 218.482,128.800 218.855 C 128.800 219.228,128.967 219.593,129.170 219.667 C 129.374 219.740,129.599 220.070,129.670 220.400 C 129.742 220.730,130.115 221.291,130.500 221.647 C 130.885 222.003,131.200 222.548,131.200 222.859 C 131.200 223.169,131.560 223.683,132.000 224.000 C 132.440 224.317,132.800 224.807,132.800 225.088 C 132.800 225.370,132.980 225.600,133.200 225.600 C 133.420 225.600,133.600 225.894,133.600 226.253 C 133.600 226.612,133.931 227.197,134.336 227.553 C 134.741 227.909,135.194 228.695,135.344 229.300 C 135.493 229.905,135.792 230.400,136.008 230.400 C 136.223 230.400,136.400 230.760,136.400 231.200 C 136.400 231.640,136.580 232.000,136.800 232.000 C 137.020 232.000,137.200 232.320,137.200 232.712 C 137.200 233.103,137.560 233.683,138.000 234.000 C 138.440 234.317,138.800 234.767,138.800 235.000 C 138.800 235.233,139.160 235.683,139.600 236.000 C 140.040 236.317,140.400 236.857,140.400 237.200 C 140.400 237.543,140.760 238.083,141.200 238.400 C 141.640 238.717,142.000 239.297,142.000 239.688 C 142.000 240.080,142.180 240.400,142.400 240.400 C 142.620 240.400,142.800 240.771,142.800 241.224 C 142.800 241.677,142.980 241.936,143.200 241.800 C 143.420 241.664,143.600 241.833,143.600 242.176 C 143.600 242.519,143.780 242.800,144.000 242.800 C 144.220 242.800,144.400 243.141,144.400 243.557 C 144.400 243.974,144.670 244.418,145.000 244.545 C 145.330 244.671,145.600 245.024,145.600 245.328 C 145.600 245.632,146.140 246.446,146.800 247.137 C 147.460 247.828,148.000 248.625,148.000 248.908 C 148.000 249.191,148.360 249.683,148.800 250.000 C 149.240 250.317,149.600 250.825,149.600 251.128 C 149.600 251.431,150.140 252.183,150.800 252.800 C 151.460 253.417,152.000 254.043,152.000 254.192 C 152.000 254.341,152.720 255.154,153.600 256.000 C 154.480 256.846,155.200 257.817,155.200 258.160 C 155.200 258.502,156.201 259.784,157.425 261.008 L 159.650 263.232 158.425 264.377 C 157.751 265.006,157.200 265.653,157.200 265.814 C 157.200 265.974,156.828 266.429,156.374 266.823 C 155.919 267.217,155.586 267.598,155.632 267.670 C 155.834 267.979,155.112 269.600,154.773 269.600 C 154.568 269.600,154.400 269.920,154.400 270.312 C 154.400 270.703,154.040 271.283,153.600 271.600 C 153.160 271.917,152.800 272.425,152.800 272.728 C 152.800 273.031,152.260 273.783,151.600 274.400 C 150.940 275.017,150.400 275.679,150.400 275.872 C 150.400 276.065,150.040 276.483,149.600 276.800 C 149.160 277.117,148.800 277.625,148.800 277.928 C 148.800 278.231,148.260 278.983,147.600 279.600 C 146.940 280.217,146.400 280.966,146.400 281.265 C 146.400 281.564,145.950 282.293,145.400 282.887 C 144.850 283.480,144.400 284.227,144.400 284.547 C 144.400 284.910,143.825 285.227,142.872 285.388 C 142.031 285.530,141.091 285.996,140.783 286.423 C 140.475 286.850,139.903 287.200,139.512 287.200 C 139.120 287.200,138.800 287.380,138.800 287.600 C 138.800 287.820,138.440 288.000,138.000 288.000 C 137.560 288.000,137.200 288.180,137.200 288.400 C 137.200 288.620,136.750 288.800,136.200 288.800 C 135.650 288.800,135.200 288.980,135.200 289.200 C 135.200 289.420,134.840 289.600,134.400 289.600 C 133.960 289.600,133.600 289.780,133.600 290.000 C 133.600 290.220,133.060 290.400,132.400 290.400 C 131.740 290.400,131.200 290.580,131.200 290.800 C 131.200 291.020,130.840 291.200,130.400 291.200 C 129.960 291.200,129.600 291.380,129.600 291.600 C 129.600 291.820,129.060 292.000,128.400 292.000 C 127.740 292.000,127.200 292.180,127.200 292.400 C 127.200 292.620,126.750 292.800,126.200 292.800 C 125.650 292.800,125.200 292.980,125.200 293.200 C 125.200 293.420,124.660 293.600,124.000 293.600 C 123.340 293.600,122.800 293.780,122.800 294.000 C 122.800 294.220,122.080 294.400,121.200 294.400 C 120.320 294.400,119.600 294.562,119.600 294.761 C 119.600 294.959,118.520 295.247,117.199 295.400 C 115.879 295.553,114.698 295.841,114.576 296.039 C 114.453 296.238,113.643 296.400,112.776 296.400 C 111.909 296.400,111.200 296.580,111.200 296.800 C 111.200 297.020,110.480 297.200,109.600 297.200 C 108.720 297.200,108.000 297.380,108.000 297.600 C 108.000 297.820,107.370 298.000,106.600 298.000 C 105.830 298.000,105.200 298.180,105.200 298.400 C 105.200 298.620,104.480 298.800,103.600 298.800 C 102.720 298.800,102.000 298.980,102.000 299.200 C 102.000 299.420,101.280 299.600,100.400 299.600 C 99.520 299.600,98.800 299.780,98.800 300.000 C 98.800 300.220,97.990 300.400,97.000 300.400 C 96.010 300.400,95.200 300.580,95.200 300.800 C 95.200 301.020,94.480 301.200,93.600 301.200 C 92.720 301.200,92.000 301.380,92.000 301.600 C 92.000 301.820,91.100 302.000,90.000 302.000 C 88.900 302.000,88.000 302.180,88.000 302.400 C 88.000 302.620,87.370 302.800,86.600 302.800 C 85.830 302.800,85.200 302.980,85.200 303.200 C 85.200 303.420,84.480 303.600,83.600 303.600 C 82.720 303.600,82.000 303.780,82.000 304.000 C 82.000 304.220,81.280 304.400,80.400 304.400 C 79.520 304.400,78.800 304.562,78.800 304.759 C 78.800 304.957,77.539 305.245,75.998 305.400 C 74.458 305.555,73.097 305.843,72.975 306.041 C 72.853 306.238,72.043 306.400,71.176 306.400 C 70.309 306.400,69.600 306.580,69.600 306.800 C 69.600 307.020,69.161 307.200,68.624 307.200 C 68.087 307.200,67.536 307.380,67.400 307.600 C 67.264 307.820,66.713 308.000,66.176 308.000 C 65.639 308.000,65.200 308.180,65.200 308.400 C 65.200 308.620,64.917 308.800,64.571 308.800 C 63.827 308.800,62.800 307.858,62.800 307.175 C 62.800 306.651,61.286 305.200,60.739 305.200 C 60.552 305.200,60.400 304.912,60.400 304.560 C 60.400 304.209,59.860 303.417,59.200 302.800 C 58.540 302.183,58.000 301.431,58.000 301.128 C 58.000 300.825,57.640 300.317,57.200 300.000 C 56.760 299.683,56.400 299.169,56.400 298.859 C 56.400 298.548,56.066 298.003,55.657 297.647 C 55.249 297.291,54.787 296.595,54.630 296.100 C 54.474 295.605,54.178 295.200,53.973 295.200 C 53.768 295.200,53.600 294.880,53.600 294.488 C 53.600 294.097,53.240 293.517,52.800 293.200 C 52.360 292.883,52.000 292.343,52.000 292.000 C 52.000 291.657,51.640 291.117,51.200 290.800 C 50.760 290.483,50.400 289.903,50.400 289.512 C 50.400 289.120,50.220 288.800,50.000 288.800 C 49.780 288.800,49.600 288.440,49.600 288.000 C 49.600 287.560,49.420 287.200,49.200 287.200 C 48.980 287.200,48.800 286.852,48.800 286.427 C 48.800 286.002,48.440 285.540,48.000 285.400 C 47.560 285.260,47.200 284.798,47.200 284.373 C 47.200 283.948,47.020 283.600,46.800 283.600 C 46.580 283.600,46.400 283.240,46.400 282.800 C 46.400 282.360,46.220 282.000,46.000 282.000 C 45.780 282.000,45.600 281.640,45.600 281.200 C 45.600 280.760,45.436 280.400,45.235 280.400 C 45.034 280.400,44.749 279.680,44.600 278.800 C 44.451 277.920,44.166 277.200,43.965 277.200 C 43.764 277.200,43.600 276.829,43.600 276.376 C 43.600 275.923,43.420 275.664,43.200 275.800 C 42.980 275.936,42.800 275.754,42.800 275.395 C 42.800 275.036,42.528 274.471,42.196 274.139 C 41.864 273.807,41.695 273.370,41.820 273.168 C 41.945 272.965,41.857 272.800,41.624 272.800 C 41.391 272.800,41.200 272.440,41.200 272.000 C 41.200 271.560,41.020 271.200,40.800 271.200 C 40.580 271.200,40.400 270.840,40.400 270.400 C 40.400 269.960,40.220 269.600,40.000 269.600 C 39.780 269.600,39.600 269.060,39.600 268.400 C 39.600 267.740,39.420 267.200,39.200 267.200 C 38.980 267.200,38.800 266.840,38.800 266.400 C 38.800 265.960,38.620 265.600,38.400 265.600 C 38.180 265.600,38.000 265.150,38.000 264.600 C 38.000 264.050,37.820 263.600,37.600 263.600 C 37.380 263.600,37.200 263.240,37.200 262.800 C 37.200 262.360,37.020 262.000,36.800 262.000 C 36.580 262.000,36.400 261.460,36.400 260.800 C 36.400 260.140,36.220 259.600,36.000 259.600 C 35.780 259.600,35.600 259.060,35.600 258.400 C 35.600 257.740,35.433 257.200,35.229 257.200 C 35.025 257.200,34.734 256.210,34.583 255.000 C 34.432 253.790,34.149 252.800,33.954 252.800 C 33.759 252.800,33.600 252.260,33.600 251.600 C 33.600 250.940,33.420 250.400,33.200 250.400 C 32.980 250.400,32.800 249.860,32.800 249.200 C 32.800 248.540,32.620 248.000,32.400 248.000 C 32.180 248.000,32.000 247.370,32.000 246.600 C 32.000 245.830,31.820 245.200,31.600 245.200 C 31.380 245.200,31.200 244.480,31.200 243.600 C 31.200 242.720,31.020 242.000,30.800 242.000 C 30.580 242.000,30.400 241.280,30.400 240.400 C 30.400 239.520,30.220 238.800,30.000 238.800 C 29.780 238.800,29.600 237.990,29.600 237.000 C 29.600 236.010,29.420 235.200,29.200 235.200 C 28.980 235.200,28.800 234.300,28.800 233.200 C 28.800 232.100,28.620 231.200,28.400 231.200 C 28.178 231.200,28.000 230.133,28.000 228.800 C 28.000 227.467,27.822 226.400,27.600 226.400 C 27.374 226.400,27.200 225.267,27.200 223.800 C 27.200 222.333,27.026 221.200,26.800 221.200 C 26.559 221.200,26.400 219.533,26.400 217.000 C 26.400 214.467,26.241 212.800,26.000 212.800 C 25.743 212.800,25.600 208.667,25.600 201.200 C 25.600 193.733,25.743 189.600,26.000 189.600 C 26.241 189.600,26.400 187.933,26.400 185.400 C 26.400 182.867,26.559 181.200,26.800 181.200 C 27.033 181.200,27.200 179.867,27.200 178.000 C 27.200 176.133,27.367 174.800,27.600 174.800 C 27.820 174.800,28.000 173.810,28.000 172.600 C 28.000 171.390,28.180 170.400,28.400 170.400 C 28.620 170.400,28.800 169.500,28.800 168.400 C 28.800 167.300,28.980 166.400,29.200 166.400 C 29.420 166.400,29.600 165.590,29.600 164.600 C 29.600 163.610,29.780 162.800,30.000 162.800 C 30.220 162.800,30.400 162.080,30.400 161.200 C 30.400 160.320,30.580 159.600,30.800 159.600 C 31.020 159.600,31.200 158.880,31.200 158.000 C 31.200 157.120,31.380 156.400,31.600 156.400 C 31.820 156.400,32.000 155.770,32.000 155.000 C 32.000 154.230,32.180 153.600,32.400 153.600 C 32.620 153.600,32.800 152.880,32.800 152.000 C 32.800 151.120,32.980 150.400,33.200 150.400 C 33.420 150.400,33.600 149.860,33.600 149.200 C 33.600 148.540,33.759 148.000,33.954 148.000 C 34.149 148.000,34.432 147.010,34.583 145.800 C 34.734 144.590,35.025 143.600,35.229 143.600 C 35.433 143.600,35.600 143.060,35.600 142.400 C 35.600 141.740,35.780 141.200,36.000 141.200 C 36.220 141.200,36.400 140.840,36.400 140.400 C 36.400 139.960,36.580 139.600,36.800 139.600 C 37.020 139.600,37.200 139.060,37.200 138.400 C 37.200 137.740,37.380 137.200,37.600 137.200 C 37.820 137.200,38.000 136.660,38.000 136.000 C 38.000 135.340,38.180 134.800,38.400 134.800 C 38.620 134.800,38.800 134.530,38.800 134.200 C 38.800 133.870,38.980 133.600,39.200 133.600 C 39.420 133.600,39.600 133.240,39.600 132.800 C 39.600 132.360,39.780 132.000,40.000 132.000 C 40.220 132.000,40.400 131.460,40.400 130.800 C 40.400 130.140,40.580 129.600,40.800 129.600 C 41.020 129.600,41.200 129.240,41.200 128.800 C 41.200 128.360,41.380 128.000,41.600 128.000 C 41.820 128.000,42.000 127.640,42.000 127.200 C 42.000 126.760,42.180 126.400,42.400 126.400 C 42.620 126.400,42.800 126.040,42.800 125.600 C 42.800 125.160,42.980 124.800,43.200 124.800 C 43.420 124.800,43.600 124.530,43.600 124.200 C 43.600 123.870,43.764 123.600,43.965 123.600 C 44.166 123.600,44.451 122.880,44.600 122.000 C 44.749 121.120,45.034 120.400,45.235 120.400 C 45.436 120.400,45.600 120.040,45.600 119.600 C 45.600 119.160,45.780 118.800,46.000 118.800 C 46.220 118.800,46.400 118.440,46.400 118.000 C 46.400 117.560,46.580 117.200,46.800 117.200 C 47.020 117.200,47.200 116.880,47.200 116.488 C 47.200 116.097,47.560 115.517,48.000 115.200 C 48.440 114.883,48.800 114.393,48.800 114.112 C 48.800 113.830,48.980 113.600,49.200 113.600 C 49.420 113.600,49.600 113.240,49.600 112.800 C 49.600 112.360,49.780 112.000,50.000 112.000 C 50.220 112.000,50.400 111.680,50.400 111.288 C 50.400 110.897,50.760 110.317,51.200 110.000 C 51.640 109.683,52.000 109.143,52.000 108.800 C 52.000 108.457,52.360 107.917,52.800 107.600 C 53.240 107.283,53.600 106.703,53.600 106.312 C 53.600 105.920,53.760 105.600,53.957 105.600 C 54.153 105.600,54.426 105.150,54.564 104.600 C 54.702 104.050,54.992 103.600,55.208 103.600 C 55.423 103.600,55.600 103.312,55.600 102.960 C 55.600 102.609,56.140 101.817,56.800 101.200 C 57.460 100.583,58.000 99.831,58.000 99.528 C 58.000 99.225,58.360 98.717,58.800 98.400 C 59.240 98.083,59.600 97.575,59.600 97.272 C 59.600 96.969,60.140 96.217,60.800 95.600 C 61.460 94.983,62.000 94.365,62.000 94.226 C 62.000 94.087,62.630 93.343,63.400 92.573 C 64.170 91.803,64.800 90.899,64.800 90.565 C 64.800 90.230,65.880 88.896,67.200 87.600 C 68.520 86.304,69.600 85.141,69.600 85.015 C 69.600 84.465,84.465 69.600,85.015 69.600 C 85.141 69.600,86.304 68.520,87.600 67.200 C 88.896 65.880,90.230 64.800,90.565 64.800 C 90.899 64.800,91.803 64.170,92.573 63.400 C 93.343 62.630,94.087 62.000,94.226 62.000 C 94.365 62.000,94.983 61.460,95.600 60.800 C 96.217 60.140,96.969 59.600,97.272 59.600 C 97.575 59.600,98.083 59.240,98.400 58.800 C 98.717 58.360,99.225 58.000,99.528 58.000 C 99.831 58.000,100.583 57.460,101.200 56.800 C 101.817 56.140,102.609 55.600,102.960 55.600 C 103.312 55.600,103.600 55.423,103.600 55.208 C 103.600 54.992,104.050 54.702,104.600 54.564 C 105.150 54.426,105.600 54.153,105.600 53.957 C 105.600 53.760,105.920 53.600,106.312 53.600 C 106.703 53.600,107.283 53.240,107.600 52.800 C 107.917 52.360,108.457 52.000,108.800 52.000 C 109.143 52.000,109.683 51.640,110.000 51.200 C 110.317 50.760,110.897 50.400,111.288 50.400 C 111.680 50.400,112.000 50.220,112.000 50.000 C 112.000 49.780,112.360 49.600,112.800 49.600 C 113.240 49.600,113.600 49.420,113.600 49.200 C 113.600 48.980,113.830 48.800,114.112 48.800 C 114.393 48.800,114.883 48.440,115.200 48.000 C 115.517 47.560,116.097 47.200,116.488 47.200 C 116.880 47.200,117.200 47.020,117.200 46.800 C 117.200 46.580,117.560 46.400,118.000 46.400 C 118.440 46.400,118.800 46.220,118.800 46.000 C 118.800 45.780,119.160 45.600,119.600 45.600 C 120.040 45.600,120.400 45.436,120.400 45.235 C 120.400 45.034,121.120 44.749,122.000 44.600 C 122.880 44.451,123.600 44.166,123.600 43.965 C 123.600 43.764,123.870 43.600,124.200 43.600 C 124.530 43.600,124.800 43.420,124.800 43.200 C 124.800 42.980,125.160 42.800,125.600 42.800 C 126.040 42.800,126.400 42.620,126.400 42.400 C 126.400 42.180,126.760 42.000,127.200 42.000 C 127.640 42.000,128.000 41.820,128.000 41.600 C 128.000 41.380,128.360 41.200,128.800 41.200 C 129.240 41.200,129.600 41.020,129.600 40.800 C 129.600 40.580,130.140 40.400,130.800 40.400 C 131.460 40.400,132.000 40.220,132.000 40.000 C 132.000 39.780,132.360 39.600,132.800 39.600 C 133.240 39.600,133.600 39.420,133.600 39.200 C 133.600 38.980,133.870 38.800,134.200 38.800 C 134.530 38.800,134.800 38.620,134.800 38.400 C 134.800 38.180,135.340 38.000,136.000 38.000 C 136.660 38.000,137.200 37.820,137.200 37.600 C 137.200 37.380,137.740 37.200,138.400 37.200 C 139.060 37.200,139.600 37.020,139.600 36.800 C 139.600 36.580,139.960 36.400,140.400 36.400 C 140.840 36.400,141.200 36.220,141.200 36.000 C 141.200 35.780,141.740 35.600,142.400 35.600 C 143.060 35.600,143.600 35.433,143.600 35.229 C 143.600 35.025,144.590 34.734,145.800 34.583 C 147.010 34.432,148.000 34.149,148.000 33.954 C 148.000 33.759,148.540 33.600,149.200 33.600 C 149.860 33.600,150.400 33.420,150.400 33.200 C 150.400 32.980,151.120 32.800,152.000 32.800 C 152.880 32.800,153.600 32.620,153.600 32.400 C 153.600 32.180,154.230 32.000,155.000 32.000 C 155.770 32.000,156.400 31.820,156.400 31.600 C 156.400 31.380,157.120 31.200,158.000 31.200 C 158.880 31.200,159.600 31.020,159.600 30.800 C 159.600 30.580,160.320 30.400,161.200 30.400 C 162.080 30.400,162.800 30.220,162.800 30.000 C 162.800 29.780,163.610 29.600,164.600 29.600 C 165.590 29.600,166.400 29.420,166.400 29.200 C 166.400 28.980,167.300 28.800,168.400 28.800 C 169.500 28.800,170.400 28.620,170.400 28.400 C 170.400 28.180,171.390 28.000,172.600 28.000 C 173.810 28.000,174.800 27.820,174.800 27.600 C 174.800 27.367,176.133 27.200,178.000 27.200 C 179.867 27.200,181.200 27.033,181.200 26.800 C 181.200 26.559,182.867 26.400,185.400 26.400 C 187.933 26.400,189.600 26.241,189.600 26.000 C 189.600 25.743,193.467 25.600,200.400 25.600 C 207.333 25.600,211.200 25.743,211.200 26.000 M172.000 139.200 C 172.000 139.445,173.933 139.600,177.000 139.600 C 180.067 139.600,182.000 139.755,182.000 140.000 C 182.000 140.220,182.990 140.400,184.200 140.400 C 185.410 140.400,186.400 140.580,186.400 140.800 C 186.400 141.022,187.467 141.200,188.800 141.200 C 190.133 141.200,191.200 141.378,191.200 141.600 C 191.200 141.820,192.100 142.000,193.200 142.000 C 194.300 142.000,195.200 142.180,195.200 142.400 C 195.200 142.620,195.830 142.800,196.600 142.800 C 197.370 142.800,198.000 142.980,198.000 143.200 C 198.000 143.420,198.720 143.600,199.600 143.600 C 200.480 143.600,201.200 143.759,201.200 143.953 C 201.200 144.147,202.550 144.433,204.200 144.587 C 205.850 144.742,207.200 145.033,207.200 145.234 C 207.200 145.435,207.920 145.600,208.800 145.600 C 209.680 145.600,210.400 145.780,210.400 146.000 C 210.400 146.220,211.120 146.400,212.000 146.400 C 212.880 146.400,213.600 146.580,213.600 146.800 C 213.600 147.020,214.230 147.200,215.000 147.200 C 215.770 147.200,216.400 147.380,216.400 147.600 C 216.400 147.820,217.120 148.000,218.000 148.000 C 218.880 148.000,219.600 148.180,219.600 148.400 C 219.600 148.620,220.320 148.800,221.200 148.800 C 222.080 148.800,222.800 148.980,222.800 149.200 C 222.800 149.420,223.430 149.600,224.200 149.600 C 224.970 149.600,225.600 149.780,225.600 150.000 C 225.600 150.220,226.601 150.400,227.824 150.400 C 229.204 150.400,229.953 150.552,229.800 150.800 C 229.648 151.047,230.329 151.200,231.576 151.200 C 232.689 151.200,233.600 151.380,233.600 151.600 C 233.600 151.820,234.590 152.000,235.800 152.000 C 237.010 152.000,238.000 152.180,238.000 152.400 C 238.000 152.637,239.467 152.800,241.600 152.800 C 243.733 152.800,245.200 152.963,245.200 153.200 C 245.200 153.455,248.400 153.600,254.000 153.600 C 259.600 153.600,262.800 153.455,262.800 153.200 C 262.800 152.980,263.475 152.800,264.300 152.800 L 265.800 152.800 265.423 156.200 C 265.216 158.070,264.901 159.600,264.723 159.600 C 264.545 159.600,264.400 160.320,264.400 161.200 C 264.400 162.080,264.220 162.800,264.000 162.800 C 263.780 162.800,263.600 163.610,263.600 164.600 C 263.600 165.590,263.420 166.400,263.200 166.400 C 262.980 166.400,262.800 167.120,262.800 168.000 C 262.800 168.880,262.620 169.600,262.400 169.600 C 262.180 169.600,262.000 170.500,262.000 171.600 C 262.000 172.700,261.820 173.600,261.600 173.600 C 261.380 173.600,261.200 174.410,261.200 175.400 C 261.200 176.390,261.020 177.200,260.800 177.200 C 260.193 177.200,260.322 179.179,260.971 179.829 C 261.422 180.279,262.987 180.400,268.371 180.400 C 272.657 180.400,275.200 180.549,275.200 180.800 C 275.200 181.020,275.393 181.200,275.629 181.200 C 276.768 181.200,277.200 182.402,277.200 185.571 C 277.200 187.457,277.034 188.800,276.800 188.800 C 276.580 188.800,276.400 189.340,276.400 190.000 C 276.400 190.660,276.243 191.200,276.052 191.200 C 275.860 191.200,275.584 192.100,275.438 193.200 C 275.292 194.300,274.999 195.200,274.786 195.200 C 274.574 195.200,274.400 195.650,274.400 196.200 C 274.400 196.750,274.220 197.200,274.000 197.200 C 273.780 197.200,273.600 197.520,273.600 197.912 C 273.600 198.303,273.240 198.883,272.800 199.200 C 272.360 199.517,272.000 200.057,272.000 200.400 C 272.000 200.743,271.640 201.283,271.200 201.600 C 270.760 201.917,270.400 202.497,270.400 202.888 C 270.400 203.280,270.220 203.600,270.000 203.600 C 269.780 203.600,269.600 203.948,269.600 204.373 C 269.600 204.798,269.240 205.260,268.800 205.400 C 268.360 205.540,268.000 205.914,268.000 206.232 C 268.000 206.980,267.190 208.415,266.300 209.243 C 265.915 209.601,265.600 210.115,265.600 210.385 C 265.600 210.978,264.321 213.346,263.900 213.533 C 263.735 213.607,263.600 213.968,263.600 214.337 C 263.600 214.706,263.240 215.232,262.800 215.507 C 262.360 215.782,262.000 216.275,262.000 216.603 C 262.000 216.932,261.820 217.200,261.600 217.200 C 261.380 217.200,261.200 217.520,261.200 217.912 C 261.200 218.303,260.840 218.883,260.400 219.200 C 259.960 219.517,259.600 220.097,259.600 220.488 C 259.600 220.880,259.420 221.200,259.200 221.200 C 258.980 221.200,258.800 221.520,258.800 221.912 C 258.800 222.303,258.440 222.883,258.000 223.200 C 257.560 223.517,257.200 224.014,257.200 224.305 C 257.200 224.596,256.833 225.227,256.385 225.709 C 255.936 226.190,255.457 227.038,255.321 227.592 C 255.184 228.146,254.741 228.891,254.336 229.247 C 253.931 229.603,253.600 230.188,253.600 230.547 C 253.600 230.906,253.420 231.200,253.200 231.200 C 252.980 231.200,252.800 231.520,252.800 231.912 C 252.800 232.303,252.440 232.883,252.000 233.200 C 251.560 233.517,251.200 234.085,251.200 234.461 C 251.200 234.838,250.840 235.260,250.400 235.400 C 249.960 235.540,249.600 236.002,249.600 236.427 C 249.600 236.852,249.420 237.200,249.200 237.200 C 248.980 237.200,248.800 237.520,248.800 237.912 C 248.800 238.303,248.440 238.883,248.000 239.200 C 247.560 239.517,247.200 240.015,247.200 240.306 C 247.200 240.597,246.750 241.320,246.200 241.913 C 245.650 242.507,245.200 243.269,245.200 243.608 C 245.200 243.946,244.840 244.483,244.400 244.800 C 243.960 245.117,243.600 245.535,243.600 245.728 C 243.600 245.921,243.060 246.583,242.400 247.200 C 241.740 247.817,241.200 248.529,241.200 248.783 C 241.200 249.037,240.120 250.304,238.800 251.600 C 237.480 252.896,236.400 254.198,236.400 254.494 C 236.400 255.104,233.393 258.000,232.761 258.000 C 232.534 258.000,231.471 258.900,230.400 260.000 C 229.329 261.100,228.215 262.002,227.926 262.004 C 227.637 262.006,226.975 262.546,226.455 263.204 C 225.935 263.862,225.260 264.400,224.955 264.400 C 224.650 264.400,224.400 264.564,224.400 264.765 C 224.400 264.966,223.680 265.251,222.800 265.400 C 221.920 265.549,221.200 265.834,221.200 266.035 C 221.200 266.236,220.840 266.400,220.400 266.400 C 219.960 266.400,219.600 266.580,219.600 266.800 C 219.600 267.020,219.240 267.200,218.800 267.200 C 218.360 267.200,218.000 267.380,218.000 267.600 C 218.000 267.820,217.460 268.000,216.800 268.000 C 216.140 268.000,215.600 268.180,215.600 268.400 C 215.600 268.620,215.150 268.800,214.600 268.800 C 214.050 268.800,213.600 268.980,213.600 269.200 C 213.600 269.420,212.880 269.600,212.000 269.600 C 211.120 269.600,210.400 269.780,210.400 270.000 C 210.400 270.222,209.333 270.400,208.000 270.400 C 206.667 270.400,205.600 270.578,205.600 270.800 C 205.600 271.043,203.800 271.200,201.000 271.200 C 198.200 271.200,196.400 271.043,196.400 270.800 C 196.400 270.580,195.410 270.400,194.200 270.400 C 192.990 270.400,192.000 270.220,192.000 270.000 C 192.000 269.780,191.280 269.600,190.400 269.600 C 189.520 269.600,188.800 269.420,188.800 269.200 C 188.800 268.980,188.260 268.800,187.600 268.800 C 186.940 268.800,186.400 268.620,186.400 268.400 C 186.400 268.180,186.040 268.000,185.600 268.000 C 185.160 268.000,184.800 267.820,184.800 267.600 C 184.800 267.380,184.530 267.200,184.200 267.200 C 183.870 267.200,183.600 267.020,183.600 266.800 C 183.600 266.580,183.240 266.400,182.800 266.400 C 182.360 266.400,182.000 266.236,182.000 266.035 C 182.000 265.834,181.312 265.554,180.472 265.412 C 179.631 265.270,178.691 264.804,178.383 264.377 C 178.075 263.950,177.543 263.600,177.200 263.600 C 176.857 263.600,176.317 263.240,176.000 262.800 C 175.683 262.360,175.273 262.000,175.090 262.000 C 174.906 262.000,173.696 260.920,172.400 259.600 C 171.104 258.280,169.856 257.200,169.625 257.200 C 169.097 257.200,167.200 255.571,167.200 255.117 C 167.200 254.930,166.615 254.151,165.900 253.386 C 165.185 252.622,164.015 251.373,163.300 250.611 C 162.585 249.850,162.000 249.023,162.000 248.774 C 162.000 248.525,161.460 247.817,160.800 247.200 C 160.140 246.583,159.600 245.953,159.600 245.800 C 159.600 245.647,159.060 245.017,158.400 244.400 C 157.740 243.783,157.200 243.031,157.200 242.728 C 157.200 242.425,156.840 241.917,156.400 241.600 C 155.960 241.283,155.600 240.703,155.600 240.312 C 155.600 239.920,155.423 239.600,155.208 239.600 C 154.992 239.600,154.693 239.105,154.544 238.500 C 154.394 237.895,153.941 237.109,153.536 236.753 C 153.131 236.397,152.800 235.902,152.800 235.653 C 152.800 235.404,152.620 235.200,152.400 235.200 C 152.180 235.200,152.000 234.880,152.000 234.488 C 152.000 234.097,151.640 233.517,151.200 233.200 C 150.760 232.883,150.400 232.343,150.400 232.000 C 150.400 231.657,150.040 231.117,149.600 230.800 C 149.160 230.483,148.800 229.903,148.800 229.512 C 148.800 229.120,148.620 228.800,148.400 228.800 C 148.180 228.800,148.000 228.480,148.000 228.088 C 148.000 227.697,147.640 227.117,147.200 226.800 C 146.760 226.483,146.400 226.059,146.400 225.859 C 146.400 225.658,146.064 225.203,145.654 224.847 C 145.243 224.491,144.769 223.570,144.600 222.800 C 144.431 222.030,143.957 221.109,143.546 220.753 C 143.136 220.397,142.800 219.852,142.800 219.541 C 142.800 219.231,142.440 218.717,142.000 218.400 C 141.560 218.083,141.200 217.503,141.200 217.112 C 141.200 216.720,141.020 216.400,140.800 216.400 C 140.580 216.400,140.400 216.170,140.400 215.888 C 140.400 215.607,140.040 215.117,139.600 214.800 C 139.160 214.483,138.800 213.943,138.800 213.600 C 138.800 213.257,138.440 212.717,138.000 212.400 C 137.560 212.083,137.200 211.503,137.200 211.112 C 137.200 210.720,137.020 210.400,136.800 210.400 C 136.580 210.400,136.400 210.080,136.400 209.688 C 136.400 209.297,136.040 208.717,135.600 208.400 C 135.160 208.083,134.800 207.497,134.800 207.099 C 134.800 206.701,134.530 206.271,134.200 206.145 C 133.870 206.018,133.600 205.613,133.600 205.246 C 133.600 204.878,133.240 204.317,132.800 204.000 C 132.360 203.683,132.000 203.103,132.000 202.712 C 132.000 202.320,131.820 202.000,131.600 202.000 C 131.380 202.000,131.200 201.680,131.200 201.288 C 131.200 200.897,130.840 200.317,130.400 200.000 C 129.960 199.683,129.600 199.103,129.600 198.712 C 129.600 198.320,129.420 198.000,129.200 198.000 C 128.980 198.000,128.800 197.640,128.800 197.200 C 128.800 196.760,128.620 196.400,128.400 196.400 C 128.180 196.400,128.000 196.130,128.000 195.800 C 128.000 195.470,127.820 195.200,127.600 195.200 C 127.380 195.200,127.200 194.660,127.200 194.000 C 127.200 193.340,127.020 192.800,126.800 192.800 C 126.580 192.800,126.400 192.260,126.400 191.600 C 126.400 190.940,126.220 190.400,126.000 190.400 C 125.774 190.400,125.600 189.267,125.600 187.800 C 125.600 186.004,125.445 185.190,125.100 185.168 C 124.700 185.143,124.700 185.096,125.100 184.935 C 125.375 184.824,125.600 184.298,125.600 183.767 C 125.600 183.235,125.780 182.800,126.000 182.800 C 126.220 182.800,126.400 182.517,126.400 182.171 C 126.400 181.826,126.657 181.286,126.971 180.971 C 127.286 180.657,127.826 180.400,128.171 180.400 C 128.517 180.400,128.800 180.220,128.800 180.000 C 128.800 179.780,129.160 179.600,129.600 179.600 C 130.040 179.600,130.400 179.420,130.400 179.200 C 130.400 178.980,130.940 178.800,131.600 178.800 C 132.260 178.800,132.800 178.620,132.800 178.400 C 132.800 178.157,134.600 178.000,137.400 178.000 L 142.000 178.000 142.000 176.200 C 142.000 175.210,141.820 174.400,141.600 174.400 C 141.360 174.400,141.200 172.800,141.200 170.400 C 141.200 168.000,141.040 166.400,140.800 166.400 C 140.561 166.400,140.400 164.867,140.400 162.600 C 140.400 160.333,140.239 158.800,140.000 158.800 C 139.759 158.800,139.600 157.133,139.600 154.600 C 139.600 152.067,139.441 150.400,139.200 150.400 C 138.972 150.400,138.800 149.213,138.800 147.639 L 138.800 144.879 141.200 144.600 C 142.520 144.447,143.600 144.159,143.600 143.961 C 143.600 143.762,144.050 143.600,144.600 143.600 C 145.150 143.600,145.600 143.420,145.600 143.200 C 145.600 142.980,146.140 142.800,146.800 142.800 C 147.460 142.800,148.000 142.620,148.000 142.400 C 148.000 142.180,148.720 142.000,149.600 142.000 C 150.480 142.000,151.200 141.820,151.200 141.600 C 151.200 141.380,151.920 141.200,152.800 141.200 C 153.680 141.200,154.400 141.020,154.400 140.800 C 154.400 140.580,155.390 140.400,156.600 140.400 C 157.810 140.400,158.800 140.220,158.800 140.000 C 158.800 139.757,160.600 139.600,163.400 139.600 C 166.200 139.600,168.000 139.443,168.000 139.200 C 168.000 138.980,168.900 138.800,170.000 138.800 C 171.100 138.800,172.000 138.980,172.000 139.200 M166.000 270.400 C 166.317 270.840,166.825 271.200,167.128 271.200 C 167.431 271.200,168.183 271.740,168.800 272.400 C 169.417 273.060,170.132 273.600,170.389 273.600 C 170.647 273.600,171.127 273.870,171.457 274.200 C 171.787 274.530,172.404 274.800,172.829 274.800 C 173.253 274.800,173.600 274.980,173.600 275.200 C 173.600 275.420,173.960 275.600,174.400 275.600 C 174.840 275.600,175.200 275.780,175.200 276.000 C 175.200 276.220,175.470 276.400,175.800 276.400 C 176.130 276.400,176.400 276.580,176.400 276.800 C 176.400 277.020,176.760 277.200,177.200 277.200 C 177.640 277.200,178.000 277.380,178.000 277.600 C 178.000 277.820,178.360 278.000,178.800 278.000 C 179.240 278.000,179.600 278.180,179.600 278.400 C 179.600 278.620,180.140 278.800,180.800 278.800 C 181.460 278.800,182.000 278.980,182.000 279.200 C 182.000 279.420,182.540 279.600,183.200 279.600 C 183.860 279.600,184.400 279.780,184.400 280.000 C 184.400 280.220,185.030 280.400,185.800 280.400 C 186.570 280.400,187.200 280.580,187.200 280.800 C 187.200 281.020,188.100 281.200,189.200 281.200 C 190.300 281.200,191.200 281.380,191.200 281.600 C 191.200 281.856,194.667 282.000,200.800 282.000 C 206.933 282.000,210.400 281.856,210.400 281.600 C 210.400 281.380,211.300 281.200,212.400 281.200 C 213.500 281.200,214.400 281.020,214.400 280.800 C 214.400 280.580,215.030 280.400,215.800 280.400 C 216.570 280.400,217.200 280.220,217.200 280.000 C 217.200 279.780,217.740 279.600,218.400 279.600 C 219.060 279.600,219.600 279.420,219.600 279.200 C 219.600 278.980,220.140 278.800,220.800 278.800 C 221.460 278.800,222.000 278.620,222.000 278.400 C 222.000 278.180,222.360 278.000,222.800 278.000 C 223.240 278.000,223.600 277.820,223.600 277.600 C 223.600 277.380,223.870 277.200,224.200 277.200 C 224.530 277.200,224.800 277.020,224.800 276.800 C 224.800 276.580,225.160 276.400,225.600 276.400 C 226.040 276.400,226.400 276.220,226.400 276.000 C 226.400 275.780,226.760 275.600,227.200 275.600 C 227.640 275.600,228.000 275.436,228.000 275.235 C 228.000 275.034,228.688 274.754,229.528 274.612 C 230.369 274.470,231.309 274.004,231.617 273.577 C 232.456 272.412,235.200 273.568,235.200 275.086 C 235.200 275.263,235.650 275.893,236.200 276.487 C 236.750 277.080,237.200 277.803,237.200 278.094 C 237.200 278.385,237.560 278.883,238.000 279.200 C 238.440 279.517,238.800 280.025,238.800 280.328 C 238.800 280.631,239.340 281.383,240.000 282.000 C 240.660 282.617,241.200 283.397,241.200 283.734 C 241.200 284.070,241.560 284.460,242.000 284.600 C 242.440 284.740,242.800 285.130,242.800 285.466 C 242.800 285.803,243.340 286.583,244.000 287.200 C 244.660 287.817,245.200 288.603,245.200 288.947 C 245.200 289.292,245.830 290.203,246.600 290.973 C 247.370 291.743,248.000 292.634,248.000 292.953 C 248.000 293.272,248.225 293.638,248.500 293.767 C 248.900 293.953,248.900 294.047,248.500 294.233 C 248.225 294.362,248.000 294.822,248.000 295.257 C 248.000 295.692,247.820 295.936,247.600 295.800 C 247.380 295.664,247.200 295.923,247.200 296.376 C 247.200 296.829,247.020 297.200,246.800 297.200 C 246.580 297.200,246.400 297.560,246.400 298.000 C 246.400 298.440,246.236 298.800,246.035 298.800 C 245.834 298.800,245.550 299.511,245.403 300.380 C 245.223 301.449,244.759 302.259,243.972 302.880 C 243.331 303.386,242.806 304.115,242.804 304.500 C 242.802 304.885,242.623 305.200,242.406 305.200 C 241.891 305.200,235.200 311.891,235.200 312.406 C 235.200 312.623,234.880 312.800,234.488 312.800 C 234.097 312.800,233.517 313.160,233.200 313.600 C 232.883 314.040,232.380 314.400,232.083 314.400 C 231.786 314.400,231.273 314.670,230.943 315.000 C 230.613 315.330,229.996 315.600,229.571 315.600 C 229.147 315.600,228.800 315.780,228.800 316.000 C 228.800 316.220,228.440 316.400,228.000 316.400 C 227.560 316.400,227.200 316.580,227.200 316.800 C 227.200 317.020,226.829 317.200,226.376 317.200 C 225.923 317.200,225.664 317.380,225.800 317.600 C 225.944 317.833,225.537 318.000,224.824 318.000 C 224.151 318.000,223.600 318.180,223.600 318.400 C 223.600 318.620,223.240 318.800,222.800 318.800 C 222.360 318.800,222.000 318.980,222.000 319.200 C 222.000 319.420,221.460 319.600,220.800 319.600 C 220.140 319.600,219.600 319.780,219.600 320.000 C 219.600 320.220,218.880 320.400,218.000 320.400 C 217.120 320.400,216.400 320.580,216.400 320.800 C 216.400 321.020,215.770 321.200,215.000 321.200 C 214.230 321.200,213.600 321.380,213.600 321.600 C 213.600 321.822,212.533 322.000,211.200 322.000 C 209.867 322.000,208.800 322.178,208.800 322.400 C 208.800 322.653,206.000 322.800,201.200 322.800 C 196.400 322.800,193.600 322.653,193.600 322.400 C 193.600 322.171,192.400 322.000,190.800 322.000 C 189.200 322.000,188.000 321.829,188.000 321.600 C 188.000 321.380,187.190 321.200,186.200 321.200 C 185.210 321.200,184.400 321.020,184.400 320.800 C 184.400 320.580,183.860 320.400,183.200 320.400 C 182.540 320.400,182.000 320.220,182.000 320.000 C 182.000 319.780,181.280 319.600,180.400 319.600 C 179.520 319.600,178.800 319.420,178.800 319.200 C 178.800 318.980,178.260 318.800,177.600 318.800 C 176.940 318.800,176.400 318.620,176.400 318.400 C 176.400 318.180,176.040 318.000,175.600 318.000 C 175.160 318.000,174.800 317.820,174.800 317.600 C 174.800 317.380,174.350 317.200,173.800 317.200 C 173.250 317.200,172.800 317.020,172.800 316.800 C 172.800 316.580,172.440 316.400,172.000 316.400 C 171.560 316.400,171.200 316.236,171.200 316.035 C 171.200 315.834,170.480 315.549,169.600 315.400 C 168.720 315.251,168.000 314.966,168.000 314.765 C 168.000 314.564,167.680 314.400,167.288 314.400 C 166.897 314.400,166.317 314.040,166.000 313.600 C 165.683 313.160,165.233 312.800,165.000 312.800 C 164.767 312.800,164.317 312.440,164.000 312.000 C 163.683 311.560,163.143 311.200,162.800 311.200 C 162.457 311.200,161.924 310.850,161.615 310.421 C 161.307 309.993,160.907 309.734,160.727 309.845 C 160.547 309.956,160.400 309.767,160.400 309.424 C 160.400 309.081,160.133 308.800,159.807 308.800 C 159.210 308.800,155.600 305.584,155.600 305.052 C 155.600 304.780,155.218 304.261,154.100 303.015 C 153.825 302.708,153.600 302.214,153.600 301.917 C 153.600 301.620,153.240 301.117,152.800 300.800 C 152.330 300.461,152.000 299.765,152.000 299.112 C 152.000 298.500,151.820 298.000,151.600 298.000 C 151.380 298.000,151.200 297.640,151.200 297.200 C 151.200 296.760,151.020 296.400,150.800 296.400 C 150.580 296.400,150.400 295.770,150.400 295.000 C 150.400 294.230,150.220 293.600,150.000 293.600 C 149.293 293.600,149.574 292.196,150.400 291.600 C 150.840 291.283,151.200 290.743,151.200 290.400 C 151.200 290.057,151.560 289.517,152.000 289.200 C 152.440 288.883,152.800 288.385,152.800 288.094 C 152.800 287.802,153.250 287.114,153.800 286.564 C 154.350 286.014,154.800 285.342,154.800 285.070 C 154.800 284.799,155.160 284.317,155.600 284.000 C 156.040 283.683,156.400 283.143,156.400 282.800 C 156.400 282.457,156.760 281.917,157.200 281.600 C 157.640 281.283,158.000 280.775,158.000 280.472 C 158.000 280.169,158.540 279.417,159.200 278.800 C 159.860 278.183,160.400 277.431,160.400 277.128 C 160.400 276.825,160.760 276.317,161.200 276.000 C 161.640 275.683,162.000 275.233,162.000 275.000 C 162.000 274.767,162.360 274.317,162.800 274.000 C 163.240 273.683,163.600 273.180,163.600 272.883 C 163.600 272.586,163.870 272.073,164.200 271.743 C 164.530 271.413,164.800 270.796,164.800 270.371 C 164.800 269.378,165.271 269.389,166.000 270.400 " stroke="none" fill="#24e4fc" fill-rule="evenodd"></path><path id="path1" d="" stroke="none" fill="#28e4fc" fill-rule="evenodd"></path><path id="path2" d="" stroke="none" fill="#28e4fc" fill-rule="evenodd"></path><path id="path3" d="" stroke="none" fill="#28e4fc" fill-rule="evenodd"></path><path id="path4" d="" stroke="none" fill="#28e4fc" fill-rule="evenodd"></path></g></svg>